<svg xmlns="http://www.w3.org/2000/svg" viewBox="0 0 53.3 53.3"><defs><style>.cls-1{fill:#0068b4;}</style></defs><g id="Capa_2" data-name="Capa 2"><g id="Layer_1" data-name="Layer 1"><path class="cls-1" d="M26.64,11.8a14.85,14.85,0,1,1-10.51,4.35A14.79,14.79,0,0,1,26.64,11.8m-11.71.26h0L10.71,7.83A2,2,0,0,0,7.8,10.71L12,15a2,2,0,1,0,2.89-2.9M8,24.6H8a2.06,2.06,0,1,1,0,4.12H2A2.06,2.06,0,0,1,2,24.6Zm4,13.76h0L7.8,42.6a2.06,2.06,0,0,0,0,2.91,2.1,2.1,0,0,0,2.91,0l4.22-4.25a2.07,2.07,0,0,0,0-2.9,2,2,0,0,0-2.89,0m12.54,6.9h0a2.06,2.06,0,0,1,4.11,0v6a2.06,2.06,0,0,1-4.11,0Zm13.77-4h0l4.25,4.25a2.05,2.05,0,0,0,2.89-2.91l-4.25-4.24a2,2,0,0,0-2.89,0,2.07,2.07,0,0,0,0,2.9m6.89-12.54h0a2.06,2.06,0,0,1,0-4.12h6a2.06,2.06,0,1,1,0,4.12ZM41.24,15h0l4.25-4.25a2,2,0,0,0,0-2.88,2,2,0,0,0-2.89,0l-4.25,4.23a2.07,2.07,0,0,0,0,2.9,2,2,0,0,0,2.89,0M28.69,8.06h0a2.06,2.06,0,0,1-4.11,0v-6a2.06,2.06,0,0,1,4.11,0Zm5.55,11h0a10.7,10.7,0,0,0-7.6-3.14A10.72,10.72,0,0,0,15.89,26.68a10.76,10.76,0,0,0,21.51,0A10.82,10.82,0,0,0,34.24,19"/></g></g></svg>