<svg xmlns="http://www.w3.org/2000/svg" viewBox="0 0 60.62 55.54"><defs><style>.cls-1{fill:#fff;}</style></defs><g id="Capa_2" data-name="Capa 2"><g id="Layer_1" data-name="Layer 1"><path class="cls-1" d="M60.62,51.62a3.73,3.73,0,0,1-2.17,1.54,19.48,19.48,0,0,1-6.61,1.3c-2.37.09-4.74,0-7.11,0a2.31,2.31,0,0,1-2.28-2.21c-.06-.75-.3-1.11-1.06-1.13-2-.08-4-.1-6.06-.09-.64,0-.94.43-1,1.09a2.41,2.41,0,0,1-2.29,2.57,52,52,0,0,1-14,.62A59.74,59.74,0,0,1,3.3,52.25,4.79,4.79,0,0,1,.16,48.74c0-.18-.11-.34-.16-.51V46.7a3.54,3.54,0,0,1,1.09-2.21A2.35,2.35,0,0,0,2,42c0-.16,0-.32,0-.49a7.06,7.06,0,0,1,7.39-7.28c2.5,0,5,0,7.5,0a7,7,0,0,0,5.28-2.08c1.75-1.8,3.51-3.61,5.11-5.54a23.72,23.72,0,0,0,4.76-9A44.62,44.62,0,0,0,33.49,6c0-1.33,0-2.66-.05-4a1.91,1.91,0,0,1,2-2A8.82,8.82,0,0,1,42.2,4a8.88,8.88,0,0,1,1.23,4c.22,0,.42.09.61.11l10.9,1.35c2.93.36,4.4,2.34,3.94,5.15-.5,3-1,6-1.34,9a16.1,16.1,0,0,0,.14,5.87c.44,1.79.91,3.57,1.36,5.35a20.25,20.25,0,0,1,.72,7.51,2,2,0,0,0,0,.95,18,18,0,0,0,.87,1.76ZM52.81,33.27A59.6,59.6,0,0,0,41,34.49a25.42,25.42,0,0,0-9.58,4c-4,2.86-8.24,2.74-12.42.27-1.1-.65-2.07-1.54-3.11-2.3a1.31,1.31,0,0,0-.66-.27q-3.09,0-6.18,0a5,5,0,0,0-5,4.73c0,.78,0,1.57,0,2.35a.62.62,0,0,0,.43.72c1.5.54,3,1.2,4.51,1.61a59.67,59.67,0,0,0,13.7,1.69,19.37,19.37,0,0,0,6.21-1,25.74,25.74,0,0,1,10.86-.93,28.25,28.25,0,0,0,9.35-.59c2.74-.58,5.44-1.36,8.15-2A.68.68,0,0,0,57.8,42,19.15,19.15,0,0,0,57,35a10.43,10.43,0,0,1-.32-1.22c-.06-.41-.26-.54-.66-.53H52.81m3.22-2A23.74,23.74,0,0,1,55.65,22l-3.32-.45c-2.42-.33-4.84-.63-7.26-1a5,5,0,0,1-4.25-5.46c.17-2,.4-3.92.56-5.88a6.29,6.29,0,0,0-4.45-6.83c-.46-.15-.93-.26-1.48-.41,0,.24,0,.4,0,.56-.07,3,0,6-.24,8.9a28.51,28.51,0,0,1-7,17.35c-1.35,1.53-2.76,3-4.18,4.47a9.34,9.34,0,0,1-5.42,2.87,4.27,4.27,0,0,0,.34.32,9.91,9.91,0,0,0,7,2.13A8,8,0,0,0,30,37a28,28,0,0,1,11.9-4.79,65,65,0,0,1,13.06-1H56M3.8,50.1c.3-.17.58-.37.89-.51A1,1,0,0,1,6,50.54c0,.39.11.56.48.63s1,.27,1.51.41a4.72,4.72,0,0,1,.16-.45.94.94,0,0,1,1.1-.59.84.84,0,0,1,.78.91c-.05.6.26.74.74.81s.82.15,1.26.24c.22-.57.49-1.09,1.23-1s.85.66.88,1.3l2,.29c.53-.75.9-.91,1.45-.64.09,0,.23.1.26.18.48,1.14,1.51.57,2.31.84.11-.66.4-1.1,1-1.12s.84.33,1.08,1.15h1.19c.42,0,.78,0,.91-.56a1.06,1.06,0,0,1,.82-.56c.3,0,.62.29.9.49.11.09.13.29.18.42.44,0,.86,0,1.27,0a.91.91,0,0,0,1-.51A.88.88,0,0,1,30,52.67a.76.76,0,0,0,.81.24l.16,0c.41-.09.93-.06,1.19-.3s.19-.73.27-1.12a2.93,2.93,0,0,1,2.43-2.36,27.05,27.05,0,0,1,7.19.1,2.9,2.9,0,0,1,2.39,2.64c0,.53.23.69.74.67s.83,0,1.23.06c.31-1,.6-1.23,1.21-1.17s.81.41.92,1.16h1.95c.13-.61.32-1.16,1.07-1.16s.88.42,1,1l2-.25v-.61c0-.69.34-1.11.9-1.15s1,.31,1.09,1l.06.29c.64-.27,1.25-.51,1.84-.8.09,0,.13-.28.13-.43,0-1.53,0-3.06,0-4.59a5.25,5.25,0,0,0-.42-1.33c-1.32.38-2.53.75-3.76,1.08a45,45,0,0,1-13.7,1.82c-1.52-.08-3.05-.27-4.57-.3a21,21,0,0,0-7,1.12,22.26,22.26,0,0,1-8.58,1,59.36,59.36,0,0,1-13.31-2,32.38,32.38,0,0,1-3.93-1.6.54.54,0,0,0-.7.1,2.84,2.84,0,0,0-.06,3.53,12.43,12.43,0,0,0,1.31,1.19L3.8,50.1m39.53-40c-.15,1.53-.3,3-.43,4.47a5.86,5.86,0,0,0,0,1.62,2.85,2.85,0,0,0,2.5,2.4c3.28.46,6.57.88,9.85,1.32.2,0,.4.06.66.1l.42-2.53c.2-1.15.4-2.3.61-3.44a2,2,0,0,0-1.75-2.44c-2.93-.38-5.86-.74-8.78-1.1l-3.07-.4"/></g></g></svg>