<svg xmlns="http://www.w3.org/2000/svg" viewBox="0 0 43.09 39.82"><defs><style>.cls-1{fill:#fff;}</style></defs><g id="Capa_2" data-name="Capa 2"><g id="Layer_1" data-name="Layer 1"><path class="cls-1" d="M37.46,6.18H29.28V4.72A4.75,4.75,0,0,0,24.58,0H18.51a4.69,4.69,0,0,0-3.32,1.39A4.73,4.73,0,0,0,13.8,4.72V6.18H5.61A5.63,5.63,0,0,0,0,11.79v22.4a5.64,5.64,0,0,0,5.61,5.63H37.46a5.66,5.66,0,0,0,5.63-5.63V11.79a5.66,5.66,0,0,0-5.63-5.61M15.81,4.72h0a2.76,2.76,0,0,1,.78-1.93h0A2.65,2.65,0,0,1,18.51,2h6.07A2.73,2.73,0,0,1,27.3,4.72V6.18H15.81Zm24,29.47h0a2.29,2.29,0,0,1-2.31,2.3H5.61a2.29,2.29,0,0,1-2.29-2.3V11.79A2.28,2.28,0,0,1,5.61,9.5H37.46a2.29,2.29,0,0,1,2.31,2.29ZM30.84,19H25.5V13.72a1,1,0,0,0-1-1H18.57a1,1,0,0,0-1,1V19H12.26a1,1,0,0,0-1,1V26a1,1,0,0,0,1,1H17.6V32.3a1,1,0,0,0,1,1H24.5a1,1,0,0,0,1-1V27h5.34a1,1,0,0,0,1-1V20a1,1,0,0,0-1-1m-1,5.95H24.5a1,1,0,0,0-1,1V31.3h-4V26a1,1,0,0,0-1-1H13.23V21h5.34a1,1,0,0,0,1-1V14.7h4V20a1,1,0,0,0,1,1h5.34Z"/></g></g></svg>