<svg xmlns="http://www.w3.org/2000/svg" viewBox="0 0 65.24 58.24"><defs><style>.cls-1{fill:#00c6fc;}</style></defs><g id="Capa_2" data-name="Capa 2"><g id="Layer_1" data-name="Layer 1"><path class="cls-1" d="M26.39,12.22a2.07,2.07,0,0,1,0,2.93,2,2,0,0,1-2.92,0l-4.31-4.29a2.05,2.05,0,0,1,0-2.93,2.08,2.08,0,0,1,2.92,0Zm-6,5.17h0a20.43,20.43,0,0,0,0,40.85H39a15.07,15.07,0,0,0,12.33-23.7,13.18,13.18,0,0,0,1.29-2.86,15.11,15.11,0,0,0-3.66-15.29h0A15,15,0,0,0,30.66,14l-.14.09a15.23,15.23,0,0,0-4.46,4.08,19.75,19.75,0,0,0-5.63-.8m9.63,2.39h0a11.82,11.82,0,0,1,2.58-2.12l.11-.06A10.88,10.88,0,0,1,46,19.31h0A10.86,10.86,0,0,1,49.15,27a10.74,10.74,0,0,1-.53,3.36c-.09.32-.22.63-.33.94A15.17,15.17,0,0,0,39,28.11h-.53a20.79,20.79,0,0,0-6.9-7.44c-.47-.31-.95-.61-1.46-.89M57.11,29.1h0A2.09,2.09,0,0,1,55,27a2.11,2.11,0,0,1,2.1-2.1h6.07A2.09,2.09,0,0,1,65.24,27a2.06,2.06,0,0,1-2.06,2.06ZM53,15.17h0a2.08,2.08,0,0,1-2.94-2.95l4.31-4.29a2.09,2.09,0,0,1,2.93,0,2,2,0,0,1,0,2.93Zm-12.72-7h0a2.08,2.08,0,0,1-4.15,0V2.1a2.08,2.08,0,1,1,4.15,0Zm-11.07,16h0a16.09,16.09,0,0,1,6,7,2.12,2.12,0,0,0,2.18,1.23l.74-.08c.19,0,.45,0,.75,0a10.92,10.92,0,0,1,0,21.83H20.43a16.27,16.27,0,0,1,0-32.54,16,16,0,0,1,8.82,2.61"/></g></g></svg>