<svg xmlns="http://www.w3.org/2000/svg" viewBox="0 0 684.81 265.56"><defs><style>.cls-1{fill:#fff;}</style></defs><g id="Capa_2" data-name="Capa 2"><g id="Layer_1" data-name="Layer 1"><g id="Logo_Intel" data-name="Logo Intel"><rect class="cls-1" y="3.62" width="49.65" height="49.65"/><path class="cls-1" d="M48.35,83.35H1.3V261.94H48.35ZM360.2,263.75V220a117.86,117.86,0,0,1-17-1.1c-4.85-.76-8.57-2.41-11-4.89s-4.13-6.07-4.9-10.67a110,110,0,0,1-1.1-17.25V123.58H360.2V83.35H326.14V13.77H279.09V186.41c0,14.56,1.27,27,3.77,36.83s6.68,17.72,12.53,23.69,13.57,10.3,23,12.88,21.57,3.94,35.9,3.94ZM629.85,0H582.8V261.94h47.05ZM233.73,100.93c-13-14.07-31.44-21.2-54.72-21.2a69.21,69.21,0,0,0-30.87,6.87,66.52,66.52,0,0,0-23.38,19.05L122.2,109l0-3V83.35H75.78V261.94h46.76V166.79l0,6.6c0-1.09,0-2.16,0-3.21.48-16.69,4.65-29.14,12.41-37a40.57,40.57,0,0,1,29.86-12.69c13.58,0,23.94,4.16,30.8,12.36,6.72,8,10.16,19.55,10.22,34.23h0v.45h0v94.45h47.48V160.55c0-25.45-6.62-45.51-19.68-59.62m324.55,71.35a95.9,95.9,0,0,0-6.79-36.11,92.42,92.42,0,0,0-18.94-29.49,86.38,86.38,0,0,0-29.1-19.81,95.78,95.78,0,0,0-37.36-7.14,91,91,0,0,0-36.27,7.32,92.57,92.57,0,0,0-49.33,49.33,90.86,90.86,0,0,0-7.32,36.26,95.1,95.1,0,0,0,7,36.29,88.33,88.33,0,0,0,49.12,49.3,98.57,98.57,0,0,0,38.28,7.33c39.8,0,64.63-18.11,79.45-35.05l-33.86-25.79c-7.14,8.47-24.08,20-45.23,20-13.27,0-24.2-3.07-32.48-9.13a45.28,45.28,0,0,1-17-24.79L418,189.1h140.3ZM418.37,155.89c0-13.07,15-35.89,47.36-35.93s47.4,22.8,47.4,35.88Z"/><path class="cls-1" d="M683.43,239.45a17.94,17.94,0,0,0-3.74-5.53,18.14,18.14,0,0,0-5.53-3.75,17.27,17.27,0,0,0-13.53,0,18,18,0,0,0-5.52,3.75,17.79,17.79,0,0,0-3.75,5.53,17.27,17.27,0,0,0,0,13.53,17.79,17.79,0,0,0,9.27,9.27,17.27,17.27,0,0,0,13.53,0,17.7,17.7,0,0,0,9.27-9.27,17.27,17.27,0,0,0,0-13.53m-2.83,12.33a14.41,14.41,0,0,1-3.07,4.57,14.26,14.26,0,0,1-4.56,3.07,14.41,14.41,0,0,1-11.14,0,14.29,14.29,0,0,1-7.64-7.64,14.41,14.41,0,0,1,0-11.14,14.23,14.23,0,0,1,7.64-7.63A14.29,14.29,0,0,1,673,233a14.25,14.25,0,0,1,7.63,7.63,14.41,14.41,0,0,1,0,11.14m-9.93-4.16a5.63,5.63,0,0,0,3.39-1.55,5.27,5.27,0,0,0,1.34-3.93,5.71,5.71,0,0,0-1.7-4.45q-1.73-1.55-5.32-1.54H660.7v19.9h3.65V247.9H667l5,8.15h3.84Zm-2-2.88c-.57,0-1.13.07-1.69.07h-2.67v-5.57H667c.56,0,1.12,0,1.69,0a4.52,4.52,0,0,1,1.52.33,2.64,2.64,0,0,1,1.1.84,2.55,2.55,0,0,1,.42,1.55,2.51,2.51,0,0,1-.42,1.54,2.58,2.58,0,0,1-1.1.85,5.38,5.38,0,0,1-1.52.35"/></g></g></g></svg>