<svg xmlns="http://www.w3.org/2000/svg" viewBox="0 0 56.01 43.94"><defs><style>.cls-1{fill:#fff;}</style></defs><g id="Capa_2" data-name="Capa 2"><g id="Layer_1" data-name="Layer 1"><path class="cls-1" d="M38.66,13.29a4.44,4.44,0,0,1,2,.5c1,.48,2.2,1,3.69,1.75,0,0,2.39-1.71,2.52-1.79a1.26,1.26,0,0,1,1.86.34,46.06,46.06,0,0,1,3.41,8.39,1,1,0,0,1-.62,1.17,12.69,12.69,0,0,1-1.57.26c-.87.11-.85.81-.85,1.24s0,4.06,0,5.27a3.2,3.2,0,0,1-3.35,3.17h-6.4A4.39,4.39,0,0,1,35,29.37V16.88a3.71,3.71,0,0,1,3.71-3.59"/><path class="cls-1" d="M28.54,33.59H7.76V35.9H32.15A12.35,12.35,0,0,0,33,31.59c0-.12,0-15.67,0-15.67a3.74,3.74,0,0,1,3-3.88l.22,0a32,32,0,0,1,18.8,1.65c.75.37.92-.24.9-.49a7.7,7.7,0,0,0-7.51-7.78,13.1,13.1,0,0,0-7,1.74A.22.22,0,0,1,41.2,7a10.43,10.43,0,0,0-4.09-2.33.24.24,0,0,1,0-.48,32.88,32.88,0,0,1,8.48.25c.32,0,.56-.13.44-.43s-.18-.32-.34-.67a3.78,3.78,0,0,0-2.36-1.81A54.12,54.12,0,0,0,30.78,0,59.81,59.81,0,0,0,19,1.29l-.86.2c-.37.08-.46.43-.3.6s.38.35.51.51a.56.56,0,0,1-.07.82l-9.4,8.44h6.51a.85.85,0,0,1,0,1.7H7L4.44,15.88h11a.84.84,0,0,1,.76.85.85.85,0,0,1-.76.83H2.57L0,19.88H22.17a.86.86,0,0,1,.78.84.82.82,0,0,1-.76.86H0v2.3H22.14a.83.83,0,0,1,.8.88.85.85,0,0,1-.81.8H0v2.32H28.89a.82.82,0,0,1,.78.88.83.83,0,0,1-.77.8H7.77V31.9H29c.38,0,.72.49.72.88a.83.83,0,0,1-.73.82Z"/><path class="cls-1" d="M15.52,41.57v2.36h4.9a12.51,12.51,0,0,0,7.27-2.36Z"/><path class="cls-1" d="M15.52,37.59V39.9H29.63a13.2,13.2,0,0,0,1.71-2.31Z"/></g></g></svg>