<svg xmlns="http://www.w3.org/2000/svg" xmlns:xlink="http://www.w3.org/1999/xlink" viewBox="0 0 52.45 9.77"><defs><style>.cls-1{fill:none;}.cls-2{clip-path:url(#clip-path);}.cls-3{fill:#fff;}</style><clipPath id="clip-path" transform="translate(0 0)"><rect class="cls-1" width="52.45" height="9.71"/></clipPath></defs><g id="Capa_2" data-name="Capa 2"><g id="Layer_1" data-name="Layer 1"><g class="cls-2"><path class="cls-3" d="M50.23,1.23a1.06,1.06,0,0,1,2.12,0,1.06,1.06,0,0,1-2.12,0m-.09,0a1.16,1.16,0,0,0,2.31,0,1.16,1.16,0,0,0-2.31,0m.72.64H51V1.36c.48,0,.63,0,.62.51h.21v0c-.16-.12,0-.49-.22-.55.6-.53-.38-.68-.78-.6ZM51,1.23V.82c.83-.13.82.54,0,.41M4.75,2.73,0,9.69H3.25L7.81,3Zm19.54-.15V0H15.05a3.09,3.09,0,0,0-2.9,2.37V0H7.25c-1-.18-2.07,2.24-2.39,2.56Zm25.1,0V0H39.51a3,3,0,0,0-2.9,2.58ZM27.53,0H24.77V2.58h2.76Zm9.06,0H33.83V2.58h2.76Zm0,3.49-2.71-.15c-.24.9.71,3.74-.89,3.84H28.32C27,7.43,27.67,3.57,27.54,3L24.8,2.76c0,2.78-.67,6.9,2.8,6.94,5.46-.41,9.89,2.17,9-6.2M9.35,9.69H22.26c2.86-.86,2.45-2.39,2.53-3.36a3.15,3.15,0,0,0-2.54-2.22c-1-.09-10-.75-10-.75.59,3.47,7.3,2.17,9.36,2.76a.53.53,0,1,1,0,1H12V3.34L9.35,3.15Zm27.26,0h9.88a2.9,2.9,0,0,0,2.83-2.33c.13-1.61-.26-2.7-2.54-3.29-1-.08-10-.58-10-.58.83,3.25,7.37,2,9.43,2.61a.52.52,0,1,1,0,1H36.62Z" transform="translate(0 0)"/></g></g></g></svg>