<svg xmlns="http://www.w3.org/2000/svg" xmlns:xlink="http://www.w3.org/1999/xlink" viewBox="0 0 66.05 13.6"><defs><style>.cls-1{fill:none;}.cls-2{clip-path:url(#clip-path);}.cls-3{fill:#fff;}</style><clipPath id="clip-path" transform="translate(0 0)"><rect class="cls-1" width="66.05" height="13.6"/></clipPath></defs><g id="Capa_2" data-name="Capa 2"><g id="Layer_1" data-name="Layer 1"><g class="cls-2"><path class="cls-3" d="M35.92,8.4a1.51,1.51,0,0,1-1.65,1.71A1.54,1.54,0,0,1,32.6,8.36V4.49H31.13V8.4a2.8,2.8,0,0,0,3.12,3A2.84,2.84,0,0,0,37.4,8.35V4.48H35.92Z" transform="translate(0 0)"/><polygon class="cls-3" points="52.99 9.19 51.34 4.48 50.13 4.48 48.48 9.19 46.87 4.49 45.3 4.49 47.84 11.33 49.06 11.33 50.72 6.83 52.37 11.33 53.61 11.33 56.14 4.49 54.61 4.49 52.99 9.19"/><polygon class="cls-3" points="58.79 8.38 61.47 8.38 61.47 7.14 58.79 7.14 58.79 5.74 62.69 5.74 62.69 4.49 57.33 4.49 57.33 11.33 62.83 11.33 62.83 10.08 58.79 10.08 58.79 8.38"/><rect class="cls-3" x="64.59" y="4.48" width="1.46" height="6.84"/><path class="cls-3" d="M43.65,9.9l.65,1.43h1.55L42.67,4.52l0,0h-1.3l-3.2,6.85h1.5L40.27,10l0-.1ZM42,6.21,43,8.51h0l.07.16H40.87l.07-.16h0Z" transform="translate(0 0)"/><path class="cls-3" d="M8.25,10.61a.06.06,0,0,0,0-.07h0A41,41,0,0,0,2.93,2.4s-1.67,1.49-1.55,3a2.6,2.6,0,0,0,1,1.81,30.09,30.09,0,0,0,5.82,3.42s.05,0,.08,0" transform="translate(0 0)"/><path class="cls-3" d="M7.7,11.75a.09.09,0,0,0-.08-.05h0l-5.88.19a2.8,2.8,0,0,0,2.83,1.65,15.24,15.24,0,0,0,3.1-1.72h0s0-.07,0-.07" transform="translate(0 0)"/><path class="cls-3" d="M7.79,11.25s0-.08,0-.08h0C5.18,9.53.17,7,.17,7A3.07,3.07,0,0,0,.33,9.4a3.43,3.43,0,0,0,1.86,1.66,3.62,3.62,0,0,0,1.12.23c.09,0,3.5,0,4.42,0a.07.07,0,0,0,.06,0" transform="translate(0 0)"/><path class="cls-3" d="M8.18,0c-.26,0-.95.17-.95.17A2.65,2.65,0,0,0,5.3,1.88a3.23,3.23,0,0,0,0,1.76c.52,2.18,3.08,5.75,3.63,6.5,0,0,.07,0,.07,0a.07.07,0,0,0,.06-.07h0C9.91,2.11,8.18,0,8.18,0" transform="translate(0 0)"/><path class="cls-3" d="M10.13,10.16a.07.07,0,0,0,.08,0c.57-.77,3.11-4.32,3.63-6.49a3.49,3.49,0,0,0,0-1.76A2.64,2.64,0,0,0,11.91.17,9.32,9.32,0,0,0,11,0s-1.75,2.12-.9,10.1h0a.07.07,0,0,0,.05.06" transform="translate(0 0)"/><path class="cls-3" d="M11.52,11.71a.08.08,0,0,0-.07,0,.07.07,0,0,0,0,.07h0a15.71,15.71,0,0,0,3.09,1.73s1.52.49,2.85-1.65l-5.9-.19Z" transform="translate(0 0)"/><path class="cls-3" d="M19,7s-5,2.53-7.59,4.18a.08.08,0,0,0,0,.08s0,0,.06,0h0c.93,0,4.44,0,4.52,0a3.87,3.87,0,0,0,1-.22,3.36,3.36,0,0,0,1.89-1.71A3.15,3.15,0,0,0,19,7" transform="translate(0 0)"/><path class="cls-3" d="M10.92,10.61a.07.07,0,0,0,.08,0A29.83,29.83,0,0,0,16.8,7.2a2.65,2.65,0,0,0,1-1.81c.11-1.56-1.55-3-1.55-3a41,41,0,0,0-5.32,8.12h0a.09.09,0,0,0,0,.09" transform="translate(0 0)"/></g><polygon class="cls-3" points="27.6 7.25 24.27 7.25 24.27 4.48 22.79 4.48 22.79 11.33 24.27 11.33 24.27 8.55 27.6 8.55 27.6 11.33 29.08 11.33 29.08 4.48 27.6 4.48 27.6 7.25"/></g></g></svg>