<svg xmlns="http://www.w3.org/2000/svg" viewBox="0 0 57.13 10.94"><defs><style>.cls-1{fill:#fff;}</style></defs><g id="Capa_2" data-name="Capa 2"><g id="Layer_1" data-name="Layer 1"><path class="cls-1" d="M57.13,10.85c-3.23.72-4.36-2.77-6.39-4.64v4.62h-1.9V.17c2.85.15,7.29-1,7.57,3.24a3.29,3.29,0,0,1-2.27,3.48c1,1.3,2,2.64,3,3.91ZM50.88,5.13c4.73.83,4.68-3.91,0-3.12Z"/><polygon class="cls-1" points="0 0.18 2.04 0.18 2.04 4.26 6.13 4.26 6.13 0.19 8.17 0.19 8.17 10.84 6.15 10.84 6.15 6.34 2.06 6.34 2.06 10.85 0 10.85 0 0.18"/><path class="cls-1" d="M30.59,6.53V.18h1.94V10.84c-3.07.23-4.08-4.73-6.1-6.7v6.69h-2c.2-9-1.79-16.45,6.15-4.3"/><path class="cls-1" d="M46.12,5.43c.08,7.05-10.95,7-10.82,0-.07-7,10.94-7,10.82,0m-1.88,0c.09-4.57-7.09-4.6-7.06,0s7.11,4.69,7.06,0"/><path class="cls-1" d="M16.28,0c7-.07,7,11,0,10.84-7,.06-7-11,0-10.84m0,9c4.58.07,4.61-7.13,0-7.08S11.68,9,16.26,9"/></g></g></svg>