<svg xmlns="http://www.w3.org/2000/svg" viewBox="0 0 54.96 10.86"><defs><style>.cls-1{fill:#fff;}</style></defs><g id="Capa_2" data-name="Capa 2"><g id="Layer_1" data-name="Layer 1"><path class="cls-1" d="M22.05,2.33a3.43,3.43,0,0,0-2.69,1.32h0V2.47H17.09v8.25h2.27V6a1.77,1.77,0,0,1,1.87-1.74A1.81,1.81,0,0,1,23.13,6v4.7H25.4V5.6a3.18,3.18,0,0,0-3.35-3.27"/><polygon class="cls-1" points="41.5 2.47 39.45 8.09 37.4 2.47 34.81 2.47 38.21 10.71 40.69 10.71 44.09 2.47 41.5 2.47"/><path class="cls-1" d="M14.68,8.18a3.42,3.42,0,0,1-2.37.87,2.51,2.51,0,0,1-1.82-.66L16.28,6a4.54,4.54,0,0,0-1-2.3A4.15,4.15,0,0,0,12,2.33,4.23,4.23,0,0,0,7.66,6.59c0,2.49,1.88,4.27,4.62,4.27a5.42,5.42,0,0,0,3.83-1.58ZM10.33,5a2.09,2.09,0,0,1,1.74-.82,1.91,1.91,0,0,1,1.76,1.15l-4,1.65a2.67,2.67,0,0,1,.46-2"/><polygon class="cls-1" points="7.45 8.64 2.3 8.64 2.3 0 0 0 0 10.72 7.45 10.72 7.45 8.64"/><path class="cls-1" d="M48.15,10.86a4.29,4.29,0,0,1-4.42-4.27,4.44,4.44,0,0,1,8.87,0,4.32,4.32,0,0,1-4.45,4.27m0-6.59A2.17,2.17,0,0,0,46,6.59a2.24,2.24,0,0,0,2.21,2.32,2.19,2.19,0,0,0,2.19-2.32,2.24,2.24,0,0,0-2.22-2.32"/><path class="cls-1" d="M30.71,10.86a4.27,4.27,0,1,1,0-8.53,4.27,4.27,0,1,1,0,8.53m0-6.59a2.17,2.17,0,0,0-2.18,2.32,2.24,2.24,0,0,0,2.21,2.32,2.19,2.19,0,0,0,2.19-2.32,2.25,2.25,0,0,0-2.22-2.32"/><path class="cls-1" d="M52.91,9.74h-.36V9.53h1v.21h-.37v1h-.23Zm.85-.21H54l.36.56.36-.56H55v1.19h-.22V9.87l-.37.57h0L54,9.87v.85h-.22Z"/></g></g></svg>