<svg xmlns="http://www.w3.org/2000/svg" viewBox="0 0 682.31 264.45"><defs><style>.cls-1{fill:#00c6fc;}.cls-2{fill:#fff;}</style></defs><g id="Capa_2" data-name="Capa 2"><g id="Layer_1" data-name="Layer 1"><g id="Logo_Intel_2" data-name="Logo Intel 2"><rect class="cls-1" y="3.61" width="49.46" height="49.44"/><path class="cls-2" d="M48.17,83H1.29V260.85H48.17ZM358.88,262.65V219A118.33,118.33,0,0,1,341.93,218c-4.84-.76-8.54-2.4-11-4.88s-4.11-6-4.88-10.62a109.06,109.06,0,0,1-1.1-17.18V123.06h33.94V83H324.94V13.71H278.07V185.64c0,14.5,1.26,26.83,3.75,36.67s6.66,17.65,12.49,23.59,13.52,10.25,22.89,12.83,21.48,3.92,35.76,3.92ZM627.54,0H580.67V260.84h46.87ZM232.87,100.52c-13-14-31.33-21.13-54.52-21.13a69,69,0,0,0-30.76,6.85,66.18,66.18,0,0,0-23.28,19l-2.55,3.29,0-3V83H75.5V260.85h46.59V166.1l0,6.57c0-1.09,0-2.15.05-3.2.48-16.62,4.63-29,12.37-36.88A40.4,40.4,0,0,1,164.3,120c13.52,0,23.84,4.14,30.68,12.3,6.7,8,10.12,19.48,10.19,34.09h0v94.51h47.3v-101c0-25.34-6.6-45.32-19.61-59.36m323.37,71a95.5,95.5,0,0,0-6.77-36,92.1,92.1,0,0,0-18.87-29.36,86.07,86.07,0,0,0-29-19.73,95.56,95.56,0,0,0-37.23-7.12,90.83,90.83,0,0,0-36.13,7.29,92.21,92.21,0,0,0-49.16,49.13,90.67,90.67,0,0,0-7.29,36.11,94.7,94.7,0,0,0,6.94,36.14,88.13,88.13,0,0,0,48.95,49.1,98.42,98.42,0,0,0,38.13,7.29c39.66,0,64.4-18,79.16-34.9l-33.73-25.68c-7.11,8.43-24,19.87-45.06,19.87-13.23,0-24.12-3.06-32.36-9.09A45.08,45.08,0,0,1,416.92,190l-.47-1.65H556.24ZM416.83,155.24c0-13,14.95-35.75,47.19-35.78s47.23,22.71,47.23,35.73Z"/><path class="cls-2" d="M680.93,238.45a17.59,17.59,0,0,0-9.24-9.24,17.26,17.26,0,0,0-13.48,0,17.68,17.68,0,0,0-9.24,9.24,17.24,17.24,0,0,0,0,13.47,17.71,17.71,0,0,0,9.24,9.23,17.15,17.15,0,0,0,13.48,0,17.62,17.62,0,0,0,9.24-9.23,17.12,17.12,0,0,0,0-13.47m-2.82,12.28a14.46,14.46,0,0,1-3.06,4.55,14.27,14.27,0,0,1-4.55,3,14.31,14.31,0,0,1-11.1,0,14.14,14.14,0,0,1-7.6-7.6,14.31,14.31,0,0,1,0-11.1,14.23,14.23,0,0,1,7.6-7.6,14.31,14.31,0,0,1,11.1,0,14.29,14.29,0,0,1,7.61,7.6,14.31,14.31,0,0,1,0,11.1m-9.89-4.15a5.56,5.56,0,0,0,3.37-1.54,5.23,5.23,0,0,0,1.34-3.91,5.67,5.67,0,0,0-1.7-4.43c-1.14-1-2.9-1.54-5.3-1.54h-7.65V255h3.64v-8.12h2.66l4.94,8.12h3.83Zm-2-2.87c-.56,0-1.12.08-1.68.08h-2.66v-5.56h2.66c.56,0,1.12,0,1.68.05a4.71,4.71,0,0,1,1.51.33,2.57,2.57,0,0,1,0,4.76,5,5,0,0,1-1.51.34"/></g></g></g></svg>