<svg xmlns="http://www.w3.org/2000/svg" viewBox="0 0 40.38 10"><defs><style>.cls-1{fill:#fff;}</style></defs><g id="Capa_2" data-name="Capa 2"><g id="Layer_1" data-name="Layer 1"><path class="cls-1" d="M.06,7.87C-1.08,3,14,4.78,8.6,2c-1.82-.53-4.54.65-5.95-.05C2.54-1,13.77-.59,12.35,3.12c.71-2.63,10.63-4.86,9-1C18,1.53,13.85,2.41,14,6.51,14.55,9,18.26,7.66,20.08,7.8c-1.22-5.55,5-8.66,9.74-7.47,1.15.15,2.6.76,2.42,2.15C33.85-.07,37.4-.07,40.05.36c.69.3.11,1,0,1.53-.75.66-2.22.08-3.21.26-3.32.1-2.65,5-3.85,7.27-.45.81-1.8.21-2.59.38-.63-1.47,1.11-4.11,1.31-5.94l0,0c-2.19,2.52-6.08,1.88-9.07,2.54.42,2.88,4.91,1.16,7,1.45.6,0-.14,1.79-.62,1.77-2.79.14-6.76,1.09-8.69-1.48,0,3.1-9.67,2.21-8.94-1.4h0c-.44,1.17-.46,2.87-2.09,2.83C6.38,9.59,1.47,11,.06,7.87m9-2.64C2.92,5.15-.69,8.71,8,8c.62-.64.63-1.91,1-2.77M23,4.83c1.31-.19,9.15-.76,5.66-2.86C26.26,1.49,23.36,2,23,4.83"/></g></g></svg>