<svg xmlns="http://www.w3.org/2000/svg" xmlns:xlink="http://www.w3.org/1999/xlink" viewBox="0 0 23.31 21.37"><defs><style>.cls-1{fill:none;}.cls-2{clip-path:url(#clip-path);}.cls-3{fill:#fff;}</style><clipPath id="clip-path" transform="translate(0 0)"><rect class="cls-1" width="23.31" height="21.37"/></clipPath></defs><g id="Capa_2" data-name="Capa 2"><g id="Layer_1" data-name="Layer 1"><g class="cls-2"><path class="cls-3" d="M8.5.43,7.56,2.78C6.87,4.52,6.18,6.25,5.49,8S4.2,11.23,3.56,12.85c-.3.77-.6,1.53-.91,2.29-.07.18,0,.21.17.2.65,0,1.32,0,2,0a.31.31,0,0,0,.34-.23q1.26-3.19,2.54-6.4c.15-.38.31-.77.45-1.16a.22.22,0,0,1,.25-.15H9.86c.2,0,.18.07.13.19L8.86,10.41C8.23,12,7.61,13.56,7,15.13c-.06.15-.06.22.15.22H9.19a.21.21,0,0,0,.24-.16c.61-1.56,1.24-3.12,1.86-4.68.35-.86.69-1.73,1-2.61S12.07,6.06,10.91,6C10.27,6,9.64,6,9,6c-.21,0-.27,0-.19-.24q.93-2.28,1.83-4.58c.14-.34.28-.69.41-1A.25.25,0,0,1,11.33,0a12.56,12.56,0,0,1,5.36,1.06,11,11,0,0,1,5.16,4.45A9.62,9.62,0,0,1,23.28,10a9.82,9.82,0,0,1-1.37,5.8,9.66,9.66,0,0,1-1.69,2.15,11.49,11.49,0,0,1-3.11,2.21A12.55,12.55,0,0,1,13,21.29c-.49.05-1,.06-1.46.08-.17,0-.21,0-.15-.19.41-1,.8-2,1.2-3s.69-1.72,1-2.59a.34.34,0,0,1,.39-.25c1,0,1.95,0,2.91,0a1.67,1.67,0,0,0,1.52-1c.85-2.16,1.72-4.31,2.57-6.47.4-1-.24-1.86-1.41-1.87-1.48,0-3,0-4.44,0-.21,0-.24.11-.29.24l-2.57,6.47-2.8,7c-.15.37-.3.74-.43,1.11-.06.15-.13.18-.3.14a11.83,11.83,0,0,1-5.81-3.26A10,10,0,0,1,.2,12.68,9.9,9.9,0,0,1,.15,9,9.78,9.78,0,0,1,2.23,4.4,11.55,11.55,0,0,1,8.29.46l.21,0" transform="translate(0 0)"/><path class="cls-3" d="M15.19,13.94c-.23,0-.46,0-.68,0s-.24-.06-.17-.24c.27-.65.53-1.31.79-2,.54-1.37,1.09-2.75,1.63-4.13a.28.28,0,0,1,.32-.21c.45,0,.91,0,1.37,0,.22,0,.25.07.18.24-.4,1-.8,2-1.19,3s-.84,2.08-1.25,3.13a.27.27,0,0,1-.31.21c-.23,0-.46,0-.69,0" transform="translate(0 0)"/></g></g></g></svg>