<svg xmlns="http://www.w3.org/2000/svg" viewBox="0 0 682.31 264.59"><defs><style>.cls-1{fill:#00c6fc;}.cls-2{fill:#0068b4;}</style></defs><g id="Capa_2" data-name="Capa 2"><g id="Layer_1" data-name="Layer 1"><rect class="cls-1" y="3.61" width="49.46" height="49.46"/><path class="cls-2" d="M48.17,83H1.3V261H48.17ZM358.88,262.78V219.15a117.25,117.25,0,0,1-17-1.09c-4.83-.76-8.53-2.41-11-4.88s-4.11-6-4.88-10.63a110.33,110.33,0,0,1-1.1-17.19V123.13h33.94V83H324.94V13.72H278.07v172c0,14.5,1.26,26.85,3.75,36.69s6.67,17.66,12.49,23.6,13.52,10.26,22.89,12.83,21.48,3.93,35.76,3.93ZM627.54,0H580.67V261h46.87ZM232.87,100.56c-13-14-31.32-21.13-54.52-21.13a68.82,68.82,0,0,0-30.75,6.85,66.16,66.16,0,0,0-23.29,19l-2.55,3.29,0-3V83H75.5V261h46.59v-94.8l0,6.58c0-1.09,0-2.16.05-3.2.48-16.63,4.64-29,12.37-36.91A40.4,40.4,0,0,1,164.3,120c13.52,0,23.85,4.14,30.68,12.31,6.7,8,10.12,19.48,10.19,34.1h0V261h47.32V160c0-25.35-6.61-45.34-19.62-59.4m323.37,71.09a95.6,95.6,0,0,0-6.77-36,92.3,92.3,0,0,0-18.87-29.38,86.18,86.18,0,0,0-29-19.74,95.47,95.47,0,0,0-37.22-7.12,90.46,90.46,0,0,0-36.13,7.3,92.18,92.18,0,0,0-49.16,49.14A90.64,90.64,0,0,0,371.8,172a94.79,94.79,0,0,0,6.94,36.15,88.06,88.06,0,0,0,48.95,49.13,98.4,98.4,0,0,0,38.14,7.3c39.65,0,64.38-18,79.15-34.92L511.25,204c-7.11,8.44-24,19.88-45.07,19.88-13.22,0-24.11-3.06-32.35-9.09a45.14,45.14,0,0,1-16.91-24.7l-.48-1.66h139.8ZM416.83,155.32c0-13,14.95-35.76,47.19-35.8s47.23,22.72,47.23,35.75Z"/><path class="cls-2" d="M680.93,238.56a17.71,17.71,0,0,0-9.24-9.23,17.15,17.15,0,0,0-13.48,0,17.62,17.62,0,0,0-9.24,9.23,17.29,17.29,0,0,0,0,13.49,17.62,17.62,0,0,0,9.24,9.23,17.15,17.15,0,0,0,13.48,0,17.71,17.71,0,0,0,9.24-9.23,17.17,17.17,0,0,0,0-13.49m-2.82,12.3a14.46,14.46,0,0,1-3.06,4.55,14.27,14.27,0,0,1-4.55,3,14.31,14.31,0,0,1-11.1,0,14.14,14.14,0,0,1-7.6-7.6,14.31,14.31,0,0,1,0-11.1,14.21,14.21,0,0,1,7.6-7.61,14.31,14.31,0,0,1,11.1,0,14.27,14.27,0,0,1,7.61,7.61,14.31,14.31,0,0,1,0,11.1m-9.9-4.15a5.59,5.59,0,0,0,3.37-1.54,5.22,5.22,0,0,0,1.35-3.92,5.64,5.64,0,0,0-1.71-4.43q-1.69-1.55-5.29-1.54h-7.65V255.1h3.64V247h2.65l4.95,8.12h3.83Zm-2-2.87c-.57,0-1.12.07-1.69.07h-2.65v-5.55h2.65c.57,0,1.12,0,1.69,0a4.51,4.51,0,0,1,1.51.33,2.56,2.56,0,0,1,1.1.84,2.49,2.49,0,0,1,.42,1.54,2.54,2.54,0,0,1-.42,1.54,2.64,2.64,0,0,1-1.1.84,5.39,5.39,0,0,1-1.51.35"/></g></g></svg>