<svg xmlns="http://www.w3.org/2000/svg" xmlns:xlink="http://www.w3.org/1999/xlink" viewBox="0 0 36.91 11.65"><defs><style>.cls-1{fill:none;}.cls-2{clip-path:url(#clip-path);}.cls-3{fill:#fff;}</style><clipPath id="clip-path" transform="translate(0 0)"><rect class="cls-1" width="36.91" height="11.65"/></clipPath></defs><g id="Capa_2" data-name="Capa 2"><g id="Layer_1" data-name="Layer 1"><g class="cls-2"><path class="cls-3" d="M36.91,8.92v2h-7V.7h2.47V8.92ZM4.42,11A5.4,5.4,0,0,0,9.69,7.12l6.16,4.54L22,7.12V11h7v-2H24.49V.7H22V4.53L16.1,8.88l-1.32-1,5.91-4.35L18.93,2.27,13,6.62l-1.32-1,5.91-4.35L15.85,0,9.69,4.54C8.79.36,3.41.54,0,.7V11Zm-1.95-2V2.74C9,1.67,9,10,2.47,8.92" transform="translate(0 0)"/></g></g></g></svg>