<svg xmlns="http://www.w3.org/2000/svg" xmlns:xlink="http://www.w3.org/1999/xlink" viewBox="0 0 56.33 11.66"><defs><style>.cls-1{fill:none;}.cls-2{clip-path:url(#clip-path);}.cls-3{fill:#fff;}</style><clipPath id="clip-path" transform="translate(0 0)"><rect class="cls-1" width="56.33" height="11.65"/></clipPath></defs><g id="Capa_2" data-name="Capa 2"><g id="Layer_1" data-name="Layer 1"><g class="cls-2"><path class="cls-3" d="M0,0H5.72V5.54H0Z" transform="translate(0 0)"/><path class="cls-3" d="M6.31,0H12V5.54H6.31V0" transform="translate(0 0)"/><path class="cls-3" d="M51.61,2.11a2.3,2.3,0,0,1,1.8-.2v1a1.25,1.25,0,0,0-.91-.08.68.68,0,0,0-.41.56,6.77,6.77,0,0,0,0,.9h1.81c0-.38,0-.76,0-1.14.41-.11.82-.24,1.22-.36,0,.5,0,1,0,1.5h1.22v1c-.41,0-.82,0-1.23,0,0,.56,0,1.12,0,1.68,0,.31,0,.62,0,.93a.66.66,0,0,0,.27.48.93.93,0,0,0,.94-.09v1a2.55,2.55,0,0,1-1.13.16,1.35,1.35,0,0,1-1-.43,1.68,1.68,0,0,1-.35-1.14c0-.86,0-1.72,0-2.58H52.06v4H50.83c0-1.34,0-2.69,0-4H50q0-.48,0-1h.86A5,5,0,0,1,50.91,3a1.6,1.6,0,0,1,.7-.92" transform="translate(0 0)"/><path class="cls-3" d="M25.11,2.18a.75.75,0,0,1,.68.24.66.66,0,0,1,.09.78.79.79,0,0,1-.83.33.68.68,0,0,1-.57-.67.7.7,0,0,1,.63-.68" transform="translate(0 0)"/><path class="cls-3" d="M15.62,2.33h1.8c.56,1.38,1.13,2.76,1.69,4.13.14.35.27.7.42,1C20.26,5.78,21,4.06,21.7,2.33h1.73v7H22.18c0-1.72,0-3.44,0-5.16,0-.08,0-.15,0-.23a.41.41,0,0,0-.07.11C21.4,5.8,20.67,7.56,20,9.32h-.89Q18,6.68,16.87,4l-.06-.11c0,.75,0,1.51,0,2.26V9.32H15.62v-7" transform="translate(0 0)"/><path class="cls-3" d="M28.51,4.31a3.48,3.48,0,0,1,1.84,0,2.13,2.13,0,0,1,.35.14V5.6a2.05,2.05,0,0,0-1.41-.42,1.49,1.49,0,0,0-1,.55,1.9,1.9,0,0,0-.33,1.39,1.49,1.49,0,0,0,.5,1,1.59,1.59,0,0,0,1.16.33A2.39,2.39,0,0,0,30.7,8V9.1A3.16,3.16,0,0,1,29,9.44a2.53,2.53,0,0,1-1.61-.66,2.42,2.42,0,0,1-.75-1.67,3,3,0,0,1,.49-1.86,2.46,2.46,0,0,1,1.37-.94" transform="translate(0 0)"/><path class="cls-3" d="M42,4.23a3.32,3.32,0,0,1,1.71.17c0,.37,0,.74,0,1.11a2.17,2.17,0,0,0-1.29-.38.69.69,0,0,0-.6.32.51.51,0,0,0,.18.61c.36.23.77.33,1.14.53a1.68,1.68,0,0,1,.71.66,1.43,1.43,0,0,1-.33,1.68,2.38,2.38,0,0,1-1.72.51,3.91,3.91,0,0,1-1.26-.28c0-.39,0-.77,0-1.16a2.79,2.79,0,0,0,1.12.47,1.45,1.45,0,0,0,.85-.08.46.46,0,0,0,.15-.68,1.6,1.6,0,0,0-.54-.34,5.33,5.33,0,0,1-1.07-.53,1.28,1.28,0,0,1-.46-.68A1.49,1.49,0,0,1,40.8,5,1.86,1.86,0,0,1,42,4.23" transform="translate(0 0)"/><path class="cls-3" d="M33.47,4.39a1.44,1.44,0,0,1,1.15-.1v1.2a1.43,1.43,0,0,0-.84-.19,1,1,0,0,0-.77.6,2.14,2.14,0,0,0-.18,1V9.32H31.61v-5h1.22v.86a1.53,1.53,0,0,1,.64-.78" transform="translate(0 0)"/><path class="cls-3" d="M24.59,4.31h1.23v5H24.59v-5" transform="translate(0 0)"/><path class="cls-3" d="M39.75,5.48a2.15,2.15,0,0,0-1.08-1.06,3.44,3.44,0,0,0-1.77-.2,2.52,2.52,0,0,0-1.63.84,2.62,2.62,0,0,0-.57,1.53,2.83,2.83,0,0,0,.45,1.88,2.4,2.4,0,0,0,1.43.9,3.54,3.54,0,0,0,1.45,0,2.38,2.38,0,0,0,1.42-.85A2.6,2.6,0,0,0,40,7.06a3.18,3.18,0,0,0-.25-1.58m-1.19,2.3a1.12,1.12,0,0,1-.61.58,1.66,1.66,0,0,1-1,0,1.22,1.22,0,0,1-.78-.62A2.24,2.24,0,0,1,36,6.53a1.61,1.61,0,0,1,.48-1,1.34,1.34,0,0,1,.82-.31,1.36,1.36,0,0,1,1,.34,1.57,1.57,0,0,1,.43,1,2.67,2.67,0,0,1-.17,1.22" transform="translate(0 0)"/><path class="cls-3" d="M49.66,5.63A2.17,2.17,0,0,0,48.6,4.46a3.3,3.3,0,0,0-1.84-.24,2.51,2.51,0,0,0-1.36.57,2.37,2.37,0,0,0-.82,1.54,3.24,3.24,0,0,0,.19,1.74A2.28,2.28,0,0,0,46,9.25a3.43,3.43,0,0,0,1.74.14,2.4,2.4,0,0,0,1.53-.86,2.7,2.7,0,0,0,.56-1.71,3.24,3.24,0,0,0-.2-1.19m-1.11,1.7a1.55,1.55,0,0,1-.32.73,1.18,1.18,0,0,1-.73.38,1.66,1.66,0,0,1-.88-.1A1.2,1.2,0,0,1,46,7.68a2.25,2.25,0,0,1-.15-1.09,1.75,1.75,0,0,1,.37-1,1.28,1.28,0,0,1,.91-.42,1.4,1.4,0,0,1,1,.29,1.38,1.38,0,0,1,.45.79,3,3,0,0,1,0,1.08" transform="translate(0 0)"/><path class="cls-3" d="M0,6.11H5.72v5.54H0Z" transform="translate(0 0)"/><path class="cls-3" d="M6.31,6.11H12v5.54H6.31V6.11" transform="translate(0 0)"/></g></g></g></svg>