<svg xmlns="http://www.w3.org/2000/svg" viewBox="0 0 57.96 18.73"><defs><style>.cls-1{fill:#fff;}.cls-1,.cls-2,.cls-3,.cls-4{fill-rule:evenodd;}.cls-2{fill:#89898a;}.cls-3{fill:#e42528;}</style></defs><g id="Capa_2" data-name="Capa 2"><g id="Layer_1" data-name="Layer 1"><path class="cls-1" d="M54.32,14.28,57.07,6.7A23.89,23.89,0,0,0,53,7.11l-2.6,7.17Zm-.47-9.63-.53,1.46a23.49,23.49,0,0,1,4.11-.42L58,4.24a24,24,0,0,0-4.11.41"/><path class="cls-1" d="M39.52,12.48a21.77,21.77,0,0,0,3.81.34c.86,0,2.28-.1,2.41-1.2,0-.43-.42-.73-1.16-1.14s-1.52-.72-2.26-1.22a1.83,1.83,0,0,1-.81-2.11c.75-2.48,4.38-2.91,6.52-2.91a22.76,22.76,0,0,1,4.32.41L51.84,6c-1.29-.24-6-1-6.22.86,0,.43.39.71,1.14,1.12S48.3,8.76,49,9.26a1.82,1.82,0,0,1,.82,2.11c-.75,2.48-4.38,2.91-6.53,2.91A22.25,22.25,0,0,1,39,13.86Z"/><path class="cls-1" d="M33.55,14.28,35.85,8c.9-2.48-3.38-1.49-4.39,1.31l-1.82,5h-4L28,8c.9-2.48-3.37-1.49-4.39,1.31l-1.82,5h-4l3.64-10A3.23,3.23,0,0,1,24,5.09a1.57,1.57,0,0,1,.41.76,12.87,12.87,0,0,1,1.84-1,8.36,8.36,0,0,1,3.11-.65,3.2,3.2,0,0,1,2.51.85,1.68,1.68,0,0,1,.42.76,12.36,12.36,0,0,1,1.84-1,8.3,8.3,0,0,1,3.1-.65,3.23,3.23,0,0,1,2.52.85,2.21,2.21,0,0,1,.35,2.16l-2.55,7Z"/><path class="cls-2" d="M.23,3.07A21.43,21.43,0,0,1,7.74,0h.15a21.55,21.55,0,0,1,7.52,3.06l.22.14v.26a21.77,21.77,0,0,1-2.06,9.93A10.22,10.22,0,0,1,8,18.67l-.15.06-.16-.06a10.22,10.22,0,0,1-5.6-5.27A21.77,21.77,0,0,1,0,3.47V3.21Z"/><path class="cls-3" d="M.48,3.48a21.17,21.17,0,0,1,7.34-3h0a21.12,21.12,0,0,1,7.33,3c0,7.74-3,13.22-7.33,14.74h0C3.43,16.7.44,11.22.48,3.48"/><path class="cls-4" d="M10,6.48A4.78,4.78,0,0,1,6.4,7.8c-.12,0-.36,0-.42.12a.12.12,0,0,0,0,.17c1.2.85,2.76.23,3.58-.18a4,4,0,0,1-3.91.5c-.18-.05-.29-.07-.34,0a.19.19,0,0,0,0,.22A2.57,2.57,0,0,0,7,10.19,2.45,2.45,0,0,1,5,8.48c0,1,.82,1.62,1.16,2-.45,0-.89,0-1.08.39a8.29,8.29,0,0,1-.32.8A4.71,4.71,0,0,1,4.2,8.13a3.44,3.44,0,0,1,2-2.27A10.67,10.67,0,0,0,5.4,6.93c-.21.4,0,.53.34,0,.4,1,3.31.39,4.08-.54l.28-.12ZM8.12,15a.15.15,0,0,1,.17-.06c.12,0,.18.18.1.27s-.24.21-.33.33a.4.4,0,0,0-.09.17H8A.87.87,0,0,1,8.12,15m-1.36-.43a.23.23,0,0,1,.26,0,.25.25,0,0,1,0,.26,1.06,1.06,0,0,1-.26.2.88.88,0,0,0-.35.34,1.37,1.37,0,0,1,.1-.52.66.66,0,0,1,.21-.29M10,14.37a.14.14,0,0,1,.14,0,.18.18,0,0,1,.08.13,2.17,2.17,0,0,0,.07.35l.07.13a.75.75,0,0,1-.27-.18.59.59,0,0,1-.17-.28.13.13,0,0,1,.08-.16m-4.23-.65a.2.2,0,0,1,.22,0c.06.06,0,.14,0,.21a.13.13,0,0,1-.09.11l-.44.2a.56.56,0,0,0-.22.18,1.27,1.27,0,0,1,.12-.36.87.87,0,0,1,.39-.39m5.75-1c0-.06,0-.11.1-.14a.82.82,0,0,1,.31.11l.18,0a.74.74,0,0,1-.39.11c-.09,0-.19,0-.2-.12m-6.6-.51s.09,0,.13,0a.19.19,0,0,1,.15.19c0,.09,0,.19-.1.25s-.41.17-.57.29a.71.71,0,0,0-.15.15,1.37,1.37,0,0,1,.29-.68.69.69,0,0,1,.25-.2m2.39-.94a1.5,1.5,0,0,1,.43-.09.63.63,0,0,0-.33.18s-.06.1,0,.14l.18,0c.06,0,0,.1,0,.15a1.43,1.43,0,0,1-.21.43s0,.07,0,.11a.19.19,0,0,0,.11,0,1.7,1.7,0,0,0,.36-.29s.11-.1.12-.16-.09-.07-.1-.12a.43.43,0,0,1,.24-.16.59.59,0,0,1,.63.1,1.09,1.09,0,0,0-.31-.08.11.11,0,0,0-.13.06,1.23,1.23,0,0,0,0,.19.8.8,0,0,1-.44.52.9.9,0,0,0-.24.12.21.21,0,0,0-.07.14.3.3,0,0,0,.16,0,.76.76,0,0,0,.37,0c.11,0,.15-.15.26-.18a.67.67,0,0,1,.78.24c-.09,0-.16-.1-.26-.14a.35.35,0,0,0-.3,0,.66.66,0,0,0-.19.22.13.13,0,0,1-.09.07c-.07,0-.14,0-.22,0s-.2.08-.31.1a.55.55,0,0,1-.22,0,2.79,2.79,0,0,0-.4-.07.25.25,0,0,0-.17,0,.39.39,0,0,0-.06.21,3,3,0,0,1-.11-.52,2,2,0,0,1,0-.65.52.52,0,0,1,.09.29.14.14,0,0,0,.1.12c.1,0,.15-.07.2-.13a.56.56,0,0,0,.13-.35c0-.06-.09-.06-.12-.1a.21.21,0,0,1,0-.23.35.35,0,0,1,.21-.18m5-.28s.07-.06.12-.06h.27a.52.52,0,0,1-.27.15c-.07,0-.13,0-.12-.09m.07-1.11a1.63,1.63,0,0,0,.19-.09.27.27,0,0,1-.16.19.05.05,0,0,1,0-.1M9.14,8.78a1,1,0,0,0,.61.78,4.17,4.17,0,0,0,1.32,0,1.35,1.35,0,0,1,.9.1.73.73,0,0,1,.24.31,3.88,3.88,0,0,1,.15.36.39.39,0,0,1,0,.33,1,1,0,0,0-.18.45c0,.15-.05.3-.07.45a1.41,1.41,0,0,1-.15.45,2.54,2.54,0,0,1-.29.36,2.17,2.17,0,0,0-.3.66,5.18,5.18,0,0,0-.14.53.6.6,0,0,1-.3.4,7.81,7.81,0,0,1-.82.26,2.33,2.33,0,0,0-.6.4A1.07,1.07,0,0,1,9,14.9c-.4.06-.51-.26-1.24,0a.34.34,0,0,1-.28,0c-.17-.08-.19-.32-.39-.42a2.28,2.28,0,0,0-.65-.14.35.35,0,0,1-.23-.15c-.06-.13-.06-.27-.12-.4-.14-.29-.6-.38-.74-.65s.05-.42.05-.64S5.15,12,4.75,12a2.26,2.26,0,0,0,.37-.92.59.59,0,0,1,.21-.33,2.19,2.19,0,0,1,.43-.15.94.94,0,0,1,.5,0,.65.65,0,0,1,.09,1c-.27.31-.94.25-.82-.23.14.12.27.29.46.08a.07.07,0,0,0,0-.07.26.26,0,0,0-.19-.19.25.25,0,0,0-.17,0,.67.67,0,0,0-.4.33c-.15.29.18.53.56.47a1.39,1.39,0,0,0,.73-.39,7.54,7.54,0,0,0,0,1.05,3,3,0,0,0,.26.85,1.19,1.19,0,0,0,.61.53,2.41,2.41,0,0,0,.93.12,4.78,4.78,0,0,0,1.79-.46,2.51,2.51,0,0,0,1.16-1.26,7.25,7.25,0,0,0,.4-.9,2.7,2.7,0,0,0,.19-.92.76.76,0,0,0-.17-.53c-.31-.39-1-.23-1.58-.24a.24.24,0,0,0,0,.29c.15.16.51.14.75.16a1.59,1.59,0,0,1-2.23-.86c.22.27.57.82,1.1.66.19-.06.1-.2,0-.3s-.08,0-.12,0a.79.79,0,0,1-.57-1M5.8,8.6c.08.06.11.15.19.21a3.48,3.48,0,0,0,2.32.59,2.81,2.81,0,0,1-2.48-.49.63.63,0,0,1-.19-.24c0-.13.07-.14.16-.07m3.49-.15a1.63,1.63,0,0,1,1.76,1,1.07,1.07,0,0,0-.66-.17.13.13,0,0,0-.09.07c0,.07,0,.12,0,.18a.89.89,0,0,1-.9-.36,1.48,1.48,0,0,0,.29.12.58.58,0,0,0,.52-.17c.08-.08,0-.19-.06-.25a3.29,3.29,0,0,0-.91-.39m.77-1.36c.1-.07.18-.16.27-.23A3.69,3.69,0,0,1,8.08,8.15a3.37,3.37,0,0,1-1.67,0s-.08-.07,0-.11A.45.45,0,0,1,6.6,8c.16,0,.33,0,.49,0a6.41,6.41,0,0,0,1.23-.12,4.37,4.37,0,0,0,1.74-.77M2.44,4.76a.52.52,0,0,1,.35,0,.62.62,0,0,1,.27.26c0,.05.07.11,0,.16L3,5.24s0,.08,0,.11a1.42,1.42,0,0,0,.19.52s0,0,0,.06a2.79,2.79,0,0,1,.07-.58s0-.07.07-.07.12,0,.19,0,0-.09,0-.13-.13-.2-.21-.3a1.05,1.05,0,0,1,.41.4.23.23,0,0,1-.07.29.2.2,0,0,1-.17,0A.43.43,0,0,0,3.46,6s0,.1.09.09a1,1,0,0,0,.32-.17,3.65,3.65,0,0,0-.63.87.65.65,0,0,0,0-.24c0-.05-.06-.08-.1-.1s-.27-.1-.4-.16A.83.83,0,0,1,2.45,6C2.39,6,2.29,6,2.23,6s0-.12,0-.19,0-.22-.13-.29a.73.73,0,0,0-.39-.06h0A.65.65,0,0,1,2,5.35a.61.61,0,0,1,.42.23c.07.08,0,.18.12.26A.67.67,0,0,0,2.72,6,1,1,0,0,0,3,6.09a.29.29,0,0,0-.06-.28.77.77,0,0,1-.2-.44.51.51,0,0,1,0-.32s.08-.11,0-.16-.23-.1-.35-.13M7.1,3a11.9,11.9,0,0,0,1.15.67A.5.5,0,0,1,8,3.8,2.84,2.84,0,0,1,7.1,3m.49-.74h0A4.93,4.93,0,0,0,9.37,3.69a1.49,1.49,0,0,0,.64.18c.13,0,.25-.08.39-.08a.8.8,0,0,1,.41.14.15.15,0,0,1,.07.09.68.68,0,0,0,.21.43.38.38,0,0,0,.33,0c0,.09.07.18.18.2s.19-.08.3-.05a1.88,1.88,0,0,0,.12.18s.11,0,.16.08a1,1,0,0,1,.39.45A1,1,0,0,0,12.16,5c0,.25,0,.61-.18.75a.87.87,0,0,0-.1-.47,1.34,1.34,0,0,1-.5.3c.08-.09.23-.2.18-.31a.37.37,0,0,0-.31,0,1,1,0,0,0-.44.23,1.86,1.86,0,0,0-.1-.25c-.09,0-.42.12-.33.27s.38.11.52.14a.35.35,0,0,1,.2.18c0-.07,0-.14,0-.21a5.12,5.12,0,0,1,.4.55c.16-.07.2-.15.22-.36a.6.6,0,0,1,.07.32A.49.49,0,0,0,11.92,6a.72.72,0,0,1-.42.86c.08-.2.11-.36-.15-.37s-.44.08-.64.1c.08,0,.43-.23.37-.35S11,6.17,11,6.15A2.55,2.55,0,0,0,10.56,6c-.07,0-.13,0-.19.06-.34-.16-.46,0-.7.08a.66.66,0,0,1-.61-.29c-.27-.42.14-.68.48-.78-.45-.06-.63.1-.74.55a4,4,0,0,0-.59-.13,3.81,3.81,0,0,0-3.39,1,4.22,4.22,0,0,0-1.08,2.7,4.06,4.06,0,0,0,.78,2.39A4.55,4.55,0,0,1,3.25,9.71c-.09.11-.06.24-.09.36-.42-.58.17-2,.45-2.68a2.24,2.24,0,0,0-.52.44A3.54,3.54,0,0,1,4.54,5.5a2.14,2.14,0,0,0-.61.23A4.78,4.78,0,0,1,7.12,4.5a5.47,5.47,0,0,0-.9-.16,5.69,5.69,0,0,0,2.16-.61c.29.19.63.38.79.33A4.67,4.67,0,0,1,7.59,2.23m2.72,2a1.68,1.68,0,0,0,.18.21.33.33,0,0,0,.32.1.5.5,0,0,0-.08-.2.13.13,0,0,0-.09,0l-.33-.07"/><path class="cls-1" d="M9.91,6.35A4.84,4.84,0,0,1,6.35,7.68c-.12,0-.36,0-.42.11A.13.13,0,0,0,6,8c1.2.85,2.76.23,3.58-.17a4,4,0,0,1-3.91.5c-.18-.06-.29-.08-.34,0a.19.19,0,0,0,0,.22,2.57,2.57,0,0,0,1.63,1.57,2.43,2.43,0,0,1-2-1.71c0,1,.82,1.62,1.16,2-.45,0-.89.06-1.08.39a8.36,8.36,0,0,1-.32.81A4.72,4.72,0,0,1,4.15,8a3.42,3.42,0,0,1,2-2.27,8.8,8.8,0,0,0-.84,1.07c-.21.39.05.53.34,0,.4,1,3.31.4,4.08-.54l.28-.11ZM8.07,14.83a.15.15,0,0,1,.17-.05.17.17,0,0,1,.1.27c-.09.12-.24.21-.33.33a.4.4,0,0,0-.09.17h0a.89.89,0,0,1,.15-.72m-1.36-.42a.21.21,0,0,1,.26,0,.27.27,0,0,1,0,.27,1.24,1.24,0,0,1-.26.19.87.87,0,0,0-.36.35,1.39,1.39,0,0,1,.1-.53.71.71,0,0,1,.21-.28m3.23-.17a.14.14,0,0,1,.14,0,.18.18,0,0,1,.08.12c0,.12,0,.24.07.35l.07.14a.66.66,0,0,1-.27-.19.55.55,0,0,1-.17-.28.14.14,0,0,1,.08-.16m-4.23-.65a.22.22,0,0,1,.22.05c.06.06,0,.14,0,.21a.19.19,0,0,1-.1.12l-.44.19a.59.59,0,0,0-.22.19A1.6,1.6,0,0,1,5.32,14a.92.92,0,0,1,.39-.39m5.75-.95c0-.06,0-.11.11-.14a.82.82,0,0,1,.3.1.53.53,0,0,0,.18,0,.85.85,0,0,1-.39.12c-.09,0-.19,0-.2-.12m-6.6-.52a.19.19,0,0,1,.13,0,.19.19,0,0,1,.15.19c0,.09,0,.2-.09.25a4.51,4.51,0,0,0-.58.3.54.54,0,0,0-.15.15,1.4,1.4,0,0,1,.29-.69,1,1,0,0,1,.25-.2m2.39-.94a1.5,1.5,0,0,1,.43-.09.71.71,0,0,0-.33.18s-.06.1,0,.14a1.29,1.29,0,0,0,.19,0s0,.1,0,.15a1.61,1.61,0,0,1-.21.44.21.21,0,0,0,0,.1s.08,0,.11,0a1.76,1.76,0,0,0,.36-.29c0-.06.11-.1.12-.17s-.09-.07-.1-.11A.48.48,0,0,1,8,11.36a.58.58,0,0,1,.63.11,1.58,1.58,0,0,0-.31-.09c-.06,0-.12,0-.13.07a1.1,1.1,0,0,0,0,.18.8.8,0,0,1-.44.52.9.9,0,0,0-.24.12.21.21,0,0,0-.07.15.88.88,0,0,0,.16,0,.76.76,0,0,0,.37,0c.11,0,.15-.14.26-.18a.69.69,0,0,1,.78.24,2.1,2.1,0,0,0-.26-.13.35.35,0,0,0-.3,0,.83.83,0,0,0-.19.23s0,.06-.09.06-.14-.05-.22,0l-.31.11a.54.54,0,0,1-.22,0,1.76,1.76,0,0,0-.4-.06.21.21,0,0,0-.17.05.36.36,0,0,0-.06.2,3.1,3.1,0,0,1-.11-.51,2.43,2.43,0,0,1,0-.66.55.55,0,0,1,.09.3.13.13,0,0,0,.11.11c.09,0,.14-.07.19-.12a.61.61,0,0,0,.13-.35c0-.06-.09-.06-.12-.1a.23.23,0,0,1,0-.24.38.38,0,0,1,.21-.18m5-.28c0-.05.07-.06.12-.06h.27a.52.52,0,0,1-.27.15.09.09,0,0,1-.12-.09m.07-1.11.19-.08a.29.29,0,0,1-.16.19.06.06,0,0,1,0-.11M9.09,8.65a1,1,0,0,0,.61.78,3.66,3.66,0,0,0,1.32,0,1.48,1.48,0,0,1,.9.1.71.71,0,0,1,.24.31c.05.12.11.24.15.36a.41.41,0,0,1,0,.34.94.94,0,0,0-.18.44c0,.15-.05.3-.07.45a1.55,1.55,0,0,1-.15.46,4.57,4.57,0,0,1-.29.36,2,2,0,0,0-.3.65c-.06.18-.09.36-.14.54a.6.6,0,0,1-.3.39c-.25.13-.56.16-.82.27a2.3,2.3,0,0,0-.6.39,1,1,0,0,1-.51.28c-.4.07-.5-.26-1.24,0a.34.34,0,0,1-.28,0c-.17-.09-.19-.33-.39-.43a2.28,2.28,0,0,0-.65-.14A.34.34,0,0,1,6.12,14c-.06-.12-.06-.26-.11-.39-.15-.29-.61-.39-.75-.65s0-.42,0-.65-.21-.45-.61-.46A2.39,2.39,0,0,0,5.08,11a.66.66,0,0,1,.2-.34,1.66,1.66,0,0,1,.43-.14.85.85,0,0,1,.5,0,.66.66,0,0,1,.09,1c-.27.3-.94.24-.82-.24.14.12.27.3.46.09a.11.11,0,0,0,0-.08.32.32,0,0,0-.2-.19.25.25,0,0,0-.17,0,.65.65,0,0,0-.4.32c-.15.3.18.54.56.48a1.48,1.48,0,0,0,.74-.4,6.2,6.2,0,0,0,0,1,2.88,2.88,0,0,0,.26.85,1.25,1.25,0,0,0,.61.54,2.41,2.41,0,0,0,.93.11,4.43,4.43,0,0,0,1.79-.46,2.44,2.44,0,0,0,1.16-1.26,7.25,7.25,0,0,0,.4-.9,2.65,2.65,0,0,0,.19-.91.79.79,0,0,0-.17-.54c-.31-.39-1-.22-1.58-.24a.24.24,0,0,0,0,.29c.15.17.51.14.75.16a1.59,1.59,0,0,1-2.23-.86c.22.28.57.83,1.1.66.19,0,.1-.19,0-.3s-.08,0-.12-.05a.79.79,0,0,1-.57-.95M5.75,8.48c.08.06.11.14.19.2a3.48,3.48,0,0,0,2.32.59,2.83,2.83,0,0,1-2.48-.48,1.06,1.06,0,0,1-.19-.24c0-.13.07-.15.16-.07m3.49-.16A1.64,1.64,0,0,1,11,9.3a1,1,0,0,0-.66-.17.11.11,0,0,0-.09.07.28.28,0,0,0,.05.17A.91.91,0,0,1,9.4,9a1.48,1.48,0,0,0,.29.12A.58.58,0,0,0,10.21,9c.08-.08,0-.18-.06-.24a3.32,3.32,0,0,0-.91-.4M10,7a3,3,0,0,0,.27-.23A3.69,3.69,0,0,1,8,8,3.26,3.26,0,0,1,6.36,8s-.08-.07,0-.1a.37.37,0,0,1,.23,0H7a8.4,8.4,0,0,0,1.23-.12A4.39,4.39,0,0,0,10,7M2.39,4.63a.68.68,0,0,1,.35,0A.64.64,0,0,1,3,4.94s.07.1,0,.16l-.11,0s0,.07,0,.11a1.66,1.66,0,0,0,.19.51.13.13,0,0,0,.06.07,2.32,2.32,0,0,1,.06-.59.1.1,0,0,1,.07-.07c.07,0,.12.06.19,0s0-.09,0-.14-.14-.2-.22-.29a.88.88,0,0,1,.41.4.24.24,0,0,1-.07.29.32.32,0,0,1-.17,0,.42.42,0,0,0-.07.42s0,.09.08.09a1.62,1.62,0,0,0,.32-.17,3.6,3.6,0,0,0-.63.86,1,1,0,0,0,0-.24.21.21,0,0,0-.11-.1c-.13-.06-.27-.09-.4-.15a.93.93,0,0,1-.28-.28c0-.07-.16,0-.22-.08s0-.13,0-.19,0-.23-.13-.29a.74.74,0,0,0-.39-.07h0a.56.56,0,0,1,.31-.06.65.65,0,0,1,.42.23c.07.08.05.18.12.26a.67.67,0,0,0,.19.14A1,1,0,0,0,2.91,6a.27.27,0,0,0-.06-.27.83.83,0,0,1-.2-.45.43.43,0,0,1,.06-.31s.07-.11,0-.17-.23-.09-.35-.13M7.05,2.84a11.9,11.9,0,0,0,1.15.67c-.08.07-.18.17-.29.17a2.87,2.87,0,0,1-.86-.84m.5-.74h0A4.83,4.83,0,0,0,9.32,3.56a1.5,1.5,0,0,0,.64.19c.13,0,.26-.08.39-.08a.66.66,0,0,1,.41.14.13.13,0,0,1,.07.08.68.68,0,0,0,.21.43.41.41,0,0,0,.33,0,.28.28,0,0,0,.18.2c.11,0,.19-.09.3-.06s.07.12.12.18.11,0,.16.09a.93.93,0,0,1,.39.45,1,1,0,0,0-.41-.33c0,.26,0,.62-.18.75a.87.87,0,0,0-.1-.47,1.22,1.22,0,0,1-.5.3c.08-.09.23-.19.18-.31a.41.41,0,0,0-.31,0,1.32,1.32,0,0,0-.44.23,1.09,1.09,0,0,0-.1-.25c-.09,0-.42.13-.33.27s.38.11.52.14a.39.39,0,0,1,.2.18,1.2,1.2,0,0,1,0-.2,5.44,5.44,0,0,1,.39.55c.16-.08.2-.15.22-.37a.6.6,0,0,1,.07.32.38.38,0,0,0,.11-.14.71.71,0,0,1-.42.86c.08-.19.11-.36-.15-.36a4.49,4.49,0,0,0-.64.1c.08,0,.43-.24.37-.36A.27.27,0,0,0,10.9,6a1.82,1.82,0,0,0-.39-.14c-.07,0-.13,0-.19.07C10,5.8,9.86,6,9.62,6A.64.64,0,0,1,9,5.75c-.28-.42.13-.68.47-.79-.45,0-.63.1-.74.56a4,4,0,0,0-.59-.13,3.78,3.78,0,0,0-3.39,1A4.17,4.17,0,0,0,3.69,9a4,4,0,0,0,.79,2.4A4.51,4.51,0,0,1,3.2,9.58c-.09.11-.06.24-.08.36-.43-.57.16-2,.44-2.67a1.79,1.79,0,0,0-.51.43A3.51,3.51,0,0,1,4.49,5.38a2.23,2.23,0,0,0-.61.22A4.89,4.89,0,0,1,7.07,4.37a6.78,6.78,0,0,0-.9-.16A5.8,5.8,0,0,0,8.34,3.6c.28.19.62.38.79.33A4.45,4.45,0,0,1,7.55,2.1m2.71,2a1.18,1.18,0,0,0,.18.21.34.34,0,0,0,.33.11.72.72,0,0,0-.09-.2.13.13,0,0,0-.09,0l-.33-.07"/><path class="cls-4" d="M.48,3.48a21.17,21.17,0,0,1,7.34-3h0a21.12,21.12,0,0,1,7.33,3v.16a21.29,21.29,0,0,0-7.23-3h0A20.64,20.64,0,0,0,.59,3.55C.56,9,2.05,13.4,4.49,16c-2.5-2.6-4-7-4-12.56"/></g></g></svg>