<svg xmlns="http://www.w3.org/2000/svg" viewBox="0 0 45.79 43.58"><defs><style>.cls-1{fill:#fff;}</style></defs><g id="Capa_2" data-name="Capa 2"><g id="Layer_1" data-name="Layer 1"><path class="cls-1" d="M2,32.78c-3.54-6-2.1-14.92,1.65-20.47a1.75,1.75,0,0,1,2.42-.49,1.82,1.82,0,0,1,.72,1h0c.08.35.15.62.22.89a19.51,19.51,0,0,1,1.55-3.66A18.2,18.2,0,0,1,17.35,2.3a1.72,1.72,0,0,1,2.25,1,1.8,1.8,0,0,1,0,1.35c-.34.8-.64,1.57-.9,2.34a29.68,29.68,0,0,1,9.19-5.65c6.94-2.6,14.82-1.83,17.81,6.05a1.78,1.78,0,0,1-1,2.27l-.19.05c-5.88,1.55-8.09,5.39-10.16,9-2.88,5.07-5.57,9.79-15.2,9.64a25,25,0,0,0,2.57.95,1.78,1.78,0,0,1,1.17,2.2A2,2,0,0,1,22,32.57c-4.43,2.49-12.19,4.26-17.18,2.3a8.14,8.14,0,0,0-1,6.59H8.61a1.06,1.06,0,0,1,0,2.11H2.23a1.77,1.77,0,0,1-1.9-1.39A11.71,11.71,0,0,1,2,32.78M14.89,43.57H33.16a1.08,1.08,0,0,0,1.08-1,1.06,1.06,0,0,0-1.08-1.06H14.89a1.06,1.06,0,1,0,0,2.11M5,30.92H5c2.27,2.47,9,.82,11.72,0A7.4,7.4,0,0,1,14,28.17c-.63-1.24-1-3.91,1.49-3.59C26.15,26,28.62,21.66,31.27,17c2.22-3.84,4.5-7.87,10.33-10.06C36-2.17,20,8.12,17.22,14.4a1.76,1.76,0,0,1-3.42-.55A33.74,33.74,0,0,1,14.73,8a15.27,15.27,0,0,0-3.05,3.8,10.66,10.66,0,0,0-1.39,8.08,1.75,1.75,0,0,1-3.15,1.44C6.37,20.14,5.5,19,4.82,17.75c-1.49,4-2,9.33.18,13.17"/></g></g></svg>