<svg xmlns="http://www.w3.org/2000/svg" viewBox="0 0 41.15 41.13"><defs><style>.cls-1{fill:#fff;}</style></defs><g id="Capa_2" data-name="Capa 2"><g id="Layer_1" data-name="Layer 1"><path class="cls-1" d="M20.57,0A20.53,20.53,0,0,1,35.12,6l.08.1a20.55,20.55,0,0,1-.08,29l-.1.08A20.56,20.56,0,0,1,6,35.1H6A20.58,20.58,0,0,1,6,6H6A20.5,20.5,0,0,1,20.57,0m9,19H22.15V6.38a1.59,1.59,0,0,0-3.17,0V20.56a1.6,1.6,0,0,0,1.59,1.59h9a1.59,1.59,0,0,0,0-3.17M32.89,8.24h0a17.43,17.43,0,0,0-24.62,0h0a17.42,17.42,0,0,0,24.58,24.7l.07,0A17.41,17.41,0,0,0,33,8.33Z"/></g></g></svg>