<svg xmlns="http://www.w3.org/2000/svg" viewBox="0 0 45.28 33.99"><defs><style>.cls-1{fill:#fff;fill-rule:evenodd;}</style></defs><g id="Capa_2" data-name="Capa 2"><g id="Layer_1" data-name="Layer 1"><path class="cls-1" d="M35.42,25.44a1.75,1.75,0,1,1,0,3.5A1.74,1.74,0,0,1,33.7,27.2a1.75,1.75,0,0,1,1.72-1.76m-4.79-7.7h9.6L37.42,12.1H30.63Zm10.65,2.1H30.63v5.65a1.72,1.72,0,0,1,1.51,1.71,3.25,3.25,0,0,0,1,2.33v0h0a3.25,3.25,0,0,0,2.32,1,3.31,3.31,0,0,0,2.3-.92l.05-.06a3.3,3.3,0,0,0,1-2.28V27.2a1.75,1.75,0,0,1,1.74-1.76H41.8V20.86Zm.71,9.1h0A6.92,6.92,0,0,1,40.24,32l-.1.08A6.78,6.78,0,0,1,35.42,34a6.66,6.66,0,0,1-4.76-2h0a6.81,6.81,0,0,1-1.75-3.08H18.64a6.78,6.78,0,0,1-13.13,0H1.74A1.74,1.74,0,0,1,0,27.2V1.73A1.74,1.74,0,0,1,1.74,0H28.88a1.74,1.74,0,0,1,1.75,1.73V8.65h7.86a1.76,1.76,0,0,1,1.63,1.08l5,10a1.46,1.46,0,0,1,.19.78h0V27.2a1.73,1.73,0,0,1-1.74,1.74H42ZM27.15,3.48H3.48v22H7A1.77,1.77,0,0,1,8.77,27.2a3.3,3.3,0,0,0,1,2.33,3.35,3.35,0,0,0,2.35,1,3.33,3.33,0,0,0,3.3-3.26V27.2a1.77,1.77,0,0,1,1.74-1.76h10v-22Zm-15.07,22h0a1.75,1.75,0,0,1,0,3.5,1.75,1.75,0,0,1,0-3.5"/></g></g></svg>