<svg xmlns="http://www.w3.org/2000/svg" viewBox="0 0 50.41 50.41"><defs><style>.cls-1{fill:#fff;}</style></defs><g id="Capa_2" data-name="Capa 2"><g id="Layer_1" data-name="Layer 1"><path class="cls-1" d="M25.19,11.16a14,14,0,1,1-9.93,4.11,14,14,0,0,1,9.93-4.11m-11.08.25h0l-4-4a1.94,1.94,0,1,0-2.75,2.73l4,4a1.93,1.93,0,0,0,2.72-2.73M7.59,23.26h0a2,2,0,1,1,0,3.9H1.93a2,2,0,0,1,0-3.9Zm3.8,13h0l-4,4A1.94,1.94,0,0,0,10.12,43l4-4a1.93,1.93,0,0,0,0-2.74,1.91,1.91,0,0,0-2.72,0M23.25,42.8h0a1.94,1.94,0,0,1,3.88,0v5.67a1.94,1.94,0,1,1-3.88,0Zm13-3.78h0l4,4A1.94,1.94,0,1,0,43,40.28l-4-4a1.93,1.93,0,0,0-2.74,0,2,2,0,0,0,0,2.74m6.53-11.86h0a2,2,0,0,1,0-3.9h5.66a2,2,0,1,1,0,3.9ZM39,14.14h0l4-4A1.93,1.93,0,1,0,40.28,7.4l-4,4a2,2,0,0,0,0,2.73,1.91,1.91,0,0,0,2.74,0M27.13,7.62h0a1.94,1.94,0,0,1-3.88,0V1.94a1.94,1.94,0,1,1,3.88,0ZM32.39,18h0a10.14,10.14,0,0,0-7.2-3A10.14,10.14,0,0,0,15,25.23a10.18,10.18,0,0,0,20.35,0,10.22,10.22,0,0,0-3-7.22"/></g></g></svg>