<?xml version="1.0" encoding="utf-8"?>
<!-- Generator: Adobe Illustrator 16.0.0, SVG Export Plug-In . SVG Version: 6.00 Build 0)  -->
<!DOCTYPE svg PUBLIC "-//W3C//DTD SVG 1.1//EN" "http://www.w3.org/Graphics/SVG/1.1/DTD/svg11.dtd">
<svg version="1.1" id="Capa_1" xmlns="http://www.w3.org/2000/svg" xmlns:xlink="http://www.w3.org/1999/xlink" x="0px" y="0px"
	 width="596.334px" height="125.381px" viewBox="0 0 596.334 125.381" enable-background="new 0 0 596.334 125.381"
	 xml:space="preserve">
<path fill="#528291" d="M35.441,58.042H16.179v12.493h21.533v9.73H4.344V27.732h32.249v9.729H16.179v10.943h19.262V58.042z
	 M45.818,27.732h11.835v42.576h20.828v9.957H45.818V27.732z M116.604,58.042H97.341v12.493h21.534v9.73H85.506V27.732h32.248v9.729
	H97.341v10.943h19.263V58.042z M139.33,80.265l-16.792-52.533h12.964l6.333,22.24c1.831,6.247,3.419,12.192,4.727,18.746h0.164
	c1.323-6.309,3.016-12.548,4.796-18.558l6.646-22.429h12.589l-17.602,52.533H139.33z M188.508,66.777l-3.694,13.488h-12.239
	l15.976-52.533h15.49l16.296,52.533h-12.752l-4.025-13.488H188.508z M201.806,57.927l-3.26-11.164
	c-0.898-3.106-1.827-7.043-2.63-10.116h-0.164c-0.769,3.09-1.558,7.078-2.397,10.129l-3.131,11.151H201.806z M237.432,37.703
	h-14.127v-9.971h40.29v9.971h-14.327v42.562h-11.835V37.703z M300.978,58.042h-19.263v12.493h21.533v9.73H269.88V27.732h32.249
	v9.729h-20.413v10.943h19.263V58.042z"/>
<path fill="#528291" d="M6.802,103.622l-1.114,4.172H2l4.815-16.25h4.668l4.911,16.25h-3.843l-1.213-4.172H6.802z M10.81,100.884
	l-0.982-3.453c-0.271-0.961-0.551-2.178-0.793-3.129H8.985c-0.231,0.955-0.469,2.189-0.722,3.133l-0.943,3.449H10.81z
	 M33.854,104.001c0.945,0.523,2.429,1.021,3.955,1.021c1.638,0,2.507-0.701,2.507-1.771c0-0.996-0.753-1.586-2.642-2.27
	c-2.632-0.963-4.352-2.439-4.352-4.813c0-2.771,2.258-4.877,5.967-4.877c1.799,0,3.098,0.367,4.029,0.816l-0.789,2.947
	c-0.625-0.309-1.761-0.771-3.293-0.771c-1.553,0-2.295,0.74-2.295,1.57c0,1.033,0.874,1.49,2.92,2.285
	c2.793,1.076,4.086,2.568,4.086,4.865c0,2.713-2.017,5.041-6.36,5.041c-1.788,0-3.577-0.5-4.456-1.01L33.854,104.001z
	 M65.159,91.544v9.346c0,2.807,1.048,4.24,2.859,4.24c1.874,0,2.903-1.361,2.903-4.24v-9.346h3.567v9.119
	c0,5.014-2.461,7.396-6.59,7.396c-3.982,0-6.306-2.275-6.306-7.439v-9.076H65.159z M92.933,104.001
	c0.945,0.523,2.429,1.021,3.955,1.021c1.638,0,2.507-0.701,2.507-1.771c0-0.996-0.753-1.586-2.642-2.27
	c-2.632-0.963-4.352-2.439-4.352-4.813c0-2.771,2.258-4.877,5.968-4.877c1.799,0,3.098,0.367,4.028,0.816l-0.789,2.947
	c-0.625-0.309-1.761-0.771-3.293-0.771c-1.553,0-2.295,0.74-2.295,1.57c0,1.033,0.874,1.49,2.92,2.285
	c2.793,1.076,4.087,2.568,4.087,4.865c0,2.713-2.017,5.041-6.36,5.041c-1.788,0-3.577-0.5-4.456-1.01L92.933,104.001z"/>
<path fill="#528291" d="M140.793,104.964c1.038,0.656,2.511,1.182,4.131,1.182c2.173,0,3.438-1.076,3.438-2.662
	c0-1.449-0.847-2.299-3.236-3.057c-2.996-0.943-4.597-2.303-4.597-4.67c0-2.582,2.196-4.502,5.518-4.502
	c1.835,0,3.149,0.402,3.972,0.854l-0.643,1.896c-0.552-0.314-1.75-0.844-3.385-0.844c-2.297,0-3.137,1.293-3.137,2.367
	c0,1.432,1.007,2.174,3.385,2.957c2.945,0.982,4.457,2.266,4.457,4.834c0,2.412-1.765,4.764-5.978,4.764
	c-1.704,0-3.558-0.516-4.535-1.172L140.793,104.964z M171.193,91.544v9.184c0,3.76,1.702,5.477,4.109,5.477
	c2.605,0,4.276-1.754,4.276-5.477v-9.184h2.3v9.078c0,5.258-2.83,7.461-6.688,7.461c-3.577,0-6.298-2.02-6.298-7.424v-9.115H171.193
	z M215.417,100.696c-0.123-2.275-0.268-5.096-0.268-7.215h-0.055c-0.607,1.939-1.341,4.059-2.208,6.373l-2.968,7.82h-1.805
	l-2.709-7.734c-0.802-2.344-1.454-4.484-1.936-6.459h-0.047c-0.078,2.094-0.179,4.924-0.34,7.371l-0.447,6.941h-2.194l1.132-16.25
	h3.073l2.829,7.725c0.672,1.924,1.24,3.807,1.667,5.48h0.063c0.454-1.611,1.07-3.523,1.819-5.482l3.016-7.723h3.045l0.984,16.25
	h-2.276L215.417,100.696z M251.183,100.696c-0.123-2.275-0.268-5.096-0.268-7.215h-0.055c-0.607,1.939-1.341,4.059-2.208,6.373
	l-2.968,7.82h-1.805l-2.709-7.734c-0.802-2.344-1.454-4.484-1.936-6.459h-0.047c-0.079,2.094-0.179,4.924-0.34,7.371l-0.446,6.941
	h-2.194l1.132-16.25h3.073l2.829,7.725c0.672,1.924,1.24,3.807,1.667,5.48h0.063c0.455-1.611,1.07-3.523,1.819-5.482l3.016-7.723
	h3.046l0.983,16.25h-2.276L251.183,100.696z M274.674,91.544v16.25h-2.3v-16.25H274.674z M297.041,93.491h-5.373v-1.947h13.078
	v1.947h-5.405v14.303h-2.3V93.491z"/>
<path fill="#528291" d="M125.953,99.763c0,1.537-1.245,2.781-2.781,2.781c-1.535,0-2.781-1.244-2.781-2.781
	c0-1.535,1.246-2.779,2.781-2.779C124.708,96.983,125.953,98.228,125.953,99.763"/>
<path fill="#528291" d="M583.783,44.268c0-2.545,2.08-4.629,4.643-4.629c1.229,0,2.377,0.495,3.252,1.357
	c0.869,0.889,1.338,2.048,1.338,3.272c0,1.228-0.469,2.404-1.338,3.26c-0.875,0.877-2.023,1.366-3.252,1.366
	C585.863,48.895,583.783,46.821,583.783,44.268 M583.391,44.268c0,2.77,2.262,5.023,5.035,5.023c1.342,0,2.58-0.519,3.537-1.47
	c0.955-0.954,1.469-2.206,1.469-3.553c0-1.348-0.514-2.601-1.469-3.556c-0.957-0.944-2.195-1.47-3.537-1.47
	C585.652,39.242,583.391,41.496,583.391,44.268"/>
<path fill="#528291" d="M586.545,47.226h0.701v-2.334h1.594c0.273,0,0.475,0.02,0.623,0.092c0.232,0.134,0.357,0.362,0.367,0.727
	l0.066,0.913c0,0.207,0.004,0.352,0.004,0.423c0.037,0.073,0.063,0.135,0.068,0.179h0.889v-0.127
	c-0.115-0.04-0.166-0.153-0.232-0.331c-0.037-0.096-0.037-0.252-0.043-0.458l-0.029-0.732c0-0.315-0.072-0.559-0.16-0.686
	c-0.109-0.141-0.289-0.263-0.492-0.346c0.236-0.114,0.418-0.3,0.568-0.501c0.119-0.218,0.189-0.47,0.189-0.795
	c0-0.623-0.24-1.056-0.732-1.29c-0.256-0.124-0.596-0.18-0.984-0.18h-2.396V47.226z M587.246,44.268v-1.864h1.695
	c0.25,0,0.449,0.042,0.594,0.114c0.24,0.139,0.396,0.402,0.396,0.789c0,0.372-0.102,0.62-0.297,0.764
	c-0.188,0.135-0.443,0.197-0.764,0.197H587.246z"/>
<polygon fill="#528291" points="386.087,51.185 365.437,83.16 379.552,83.16 399.402,52.592 "/>
<path fill="#528291" d="M386.568,50.467c0,0,4.874-7.944,6.082-9.512c1.155-1.585,2.688-2.26,4.297-2.26h21.307v10.818
	c0,0,1.084-4.151,2.992-6.123c1.791-1.858,4.178-4.431,9.637-4.772h40.135v11.849H386.568z"/>
<path fill="#528291" d="M580.146,50.478V38.619h-42.941c-5.443,0.34-7.842,2.914-9.637,4.771c-1.91,1.972-2.984,6.124-2.984,6.124
	v0.954L580.146,50.478z"/>
<rect x="473.111" y="38.675" fill="#528291" width="12" height="11.792"/>
<rect x="512.51" y="38.675" fill="#528291" width="11.988" height="11.792"/>
<path fill="#528291" d="M524.498,54.724l-11.787-0.696v13.681c0,0-0.035,3.941-3.885,3.941h-20.26c0,0-3.43-0.278-3.43-3.904V52.171
	l-11.908-0.853V72.3c1.926,10.064,11.109,10.839,11.109,10.839s0.932,0.063,1.088,0.077h27.361c0,0,11.711-0.934,11.711-12.057
	V54.724z"/>
<path fill="#528291" d="M406.072,83.167h56.125c9.775-1.94,10.795-10.722,10.795-10.722c0.461-2.609,0.191-4.721,0.191-4.721
	c-0.293-1.76-3.674-9.527-11.008-10.204c-4.377-0.403-43.311-3.461-43.311-3.461c0.754,3.859,2.51,5.808,3.676,6.924
	c2.703,2.568,7.004,3.296,7.004,3.296c1.039,0.098,30.004,2.47,30.004,2.47c0.924,0.048,2.674,0.28,2.652,2.543
	c0,0.275-0.254,2.271-2.477,2.271h-41.982V53.959l-11.67-0.845V83.167z"/>
<path fill="#528291" d="M524.613,71.49h41.691c0.961,0,1.996-0.562,1.996-0.562c0.434-0.388,0.785-1.093,0.785-1.773
	c0-2.26-1.883-2.358-2.826-2.405c0,0-29.293-2.42-30.314-2.502c0,0-4.059-0.618-6.768-3.198c-1.176-1.104-2.734-2.311-3.895-6.293
	c0,0,39.154,2.285,43.504,2.688c7.346,0.695,10.787,7.888,11.098,10.28c0,0,0.314,2.162-0.068,4.818c0,0-1.521,10.111-12.293,10.726
	h-42.938L524.613,71.49z"/>
<path fill="#528291" d="M583.783,44.268c0-2.545,2.08-4.629,4.643-4.629c1.229,0,2.377,0.495,3.252,1.357
	c0.869,0.889,1.338,2.048,1.338,3.272c0,1.228-0.469,2.404-1.338,3.26c-0.875,0.877-2.023,1.366-3.252,1.366
	C585.863,48.895,583.783,46.821,583.783,44.268 M583.391,44.268c0,2.77,2.262,5.023,5.035,5.023c1.342,0,2.58-0.519,3.537-1.47
	c0.955-0.954,1.469-2.206,1.469-3.553c0-1.348-0.514-2.601-1.469-3.556c-0.957-0.944-2.195-1.47-3.537-1.47
	C585.652,39.242,583.391,41.496,583.391,44.268"/>
<path fill="#528291" d="M586.545,47.226h0.701v-2.334h1.594c0.273,0,0.475,0.02,0.623,0.092c0.232,0.134,0.357,0.362,0.367,0.727
	l0.066,0.913c0,0.207,0.004,0.352,0.004,0.423c0.037,0.073,0.063,0.135,0.068,0.179h0.889v-0.127
	c-0.115-0.04-0.166-0.153-0.232-0.331c-0.037-0.096-0.037-0.252-0.043-0.458l-0.029-0.732c0-0.315-0.072-0.559-0.16-0.686
	c-0.109-0.141-0.289-0.263-0.492-0.346c0.236-0.114,0.418-0.3,0.568-0.501c0.119-0.218,0.189-0.47,0.189-0.795
	c0-0.623-0.24-1.056-0.732-1.29c-0.256-0.124-0.596-0.18-0.984-0.18h-2.396V47.226z M587.246,44.268v-1.864h1.695
	c0.25,0,0.449,0.042,0.594,0.114c0.24,0.139,0.396,0.402,0.396,0.789c0,0.372-0.102,0.62-0.297,0.764
	c-0.188,0.135-0.443,0.197-0.764,0.197H587.246z"/>
<polygon fill="#528291" points="386.087,51.185 365.437,83.16 379.552,83.16 399.402,52.592 "/>
<path fill="#528291" d="M386.568,50.467c0,0,4.874-7.944,6.082-9.512c1.155-1.585,2.688-2.26,4.297-2.26h21.307v10.818
	c0,0,1.084-4.151,2.992-6.123c1.791-1.858,4.178-4.431,9.637-4.772h40.135v11.849H386.568z"/>
<path fill="#528291" d="M580.146,50.478V38.619h-42.941c-5.443,0.34-7.842,2.914-9.637,4.771c-1.91,1.972-2.984,6.124-2.984,6.124
	v0.954L580.146,50.478z"/>
<rect x="473.111" y="38.675" fill="#528291" width="12" height="11.792"/>
<rect x="512.51" y="38.675" fill="#528291" width="11.988" height="11.792"/>
<path fill="#528291" d="M524.498,54.724l-11.787-0.696v13.681c0,0-0.035,3.941-3.885,3.941h-20.26c0,0-3.43-0.278-3.43-3.904V52.171
	l-11.908-0.853V72.3c1.926,10.064,11.109,10.839,11.109,10.839s0.932,0.063,1.088,0.077h27.361c0,0,11.711-0.934,11.711-12.057
	V54.724z"/>
<path fill="#528291" d="M406.072,83.167h56.125c9.775-1.94,10.795-10.722,10.795-10.722c0.461-2.609,0.191-4.721,0.191-4.721
	c-0.293-1.76-3.674-9.527-11.008-10.204c-4.377-0.403-43.311-3.461-43.311-3.461c0.754,3.859,2.51,5.808,3.676,6.924
	c2.703,2.568,7.004,3.296,7.004,3.296c1.039,0.098,30.004,2.47,30.004,2.47c0.924,0.048,2.674,0.28,2.652,2.543
	c0,0.275-0.254,2.271-2.477,2.271h-41.982V53.959l-11.67-0.845V83.167z"/>
<path fill="#528291" d="M524.613,71.49h41.691c0.961,0,1.996-0.562,1.996-0.562c0.434-0.388,0.785-1.093,0.785-1.773
	c0-2.26-1.883-2.358-2.826-2.405c0,0-29.293-2.42-30.314-2.502c0,0-4.059-0.618-6.768-3.198c-1.176-1.104-2.734-2.311-3.895-6.293
	c0,0,39.154,2.285,43.504,2.688c7.346,0.695,10.787,7.888,11.098,10.28c0,0,0.314,2.162-0.068,4.818c0,0-1.521,10.111-12.293,10.726
	h-42.938L524.613,71.49z"/>
<rect x="338.048" y="3.316" fill="#528291" width="6.273" height="119.991"/>
</svg>
