<?xml version="1.0" encoding="utf-8"?>
<!-- Generator: Adobe Illustrator 22.0.1, SVG Export Plug-In . SVG Version: 6.00 Build 0)  -->
<svg version="1.1" id="Layer_1" xmlns="http://www.w3.org/2000/svg" xmlns:xlink="http://www.w3.org/1999/xlink" x="0px" y="0px"
	 viewBox="0 0 255 50.6" style="enable-background:new 0 0 255 50.6;" xml:space="preserve">
<style type="text/css">
	.st0{fill:#FFFFFF;}
</style>
<g>
	<path class="st0" d="M249.9,30.7c-1.7,0-3.1,1.3-3.1,3.1c0,1.8,1.4,3.1,3.1,3.1c1.7,0,3.1-1.3,3.1-3.1
		C253,32,251.6,30.7,249.9,30.7L249.9,30.7z M249.9,36.4c-1.4,0-2.5-1.1-2.5-2.6c0-1.5,1.1-2.5,2.5-2.5c1.4,0,2.5,1.1,2.5,2.5
		C252.4,35.3,251.3,36.4,249.9,36.4L249.9,36.4z"/>
	<path class="st0" d="M250.4,34c0.5-0.1,0.9-0.3,0.9-1c0-0.7-0.4-1-1.2-1h-1.3v3.5h0.5V34h0.6l0.9,1.5h0.6L250.4,34L250.4,34z
		 M249.2,33.6v-1.1h0.7c0.4,0,0.8,0.1,0.8,0.5c0,0.5-0.4,0.6-0.9,0.6H249.2L249.2,33.6z"/>
	<path class="st0" d="M42.2,16.5c0.9,0,1.5,0.3,2,0.5c1,0.5,2.2,1,3.7,1.8c0,0,2.4-1.7,2.5-1.8c0.8-0.6,1.6-0.1,1.9,0.3
		c0.9,1.7,2.5,5.2,3.4,8.4c0.1,0.4,0,1-0.6,1.2c-0.3,0.1-0.9,0.2-1.6,0.3c-0.9,0.1-0.9,0.8-0.9,1.2c0,0.5,0,4.1,0,5.3
		c0,0.7-0.5,3.2-3.3,3.2c-0.2,0-6.4,0-6.4,0c-2.4,0-4.4-2-4.4-4.2c0-1.4,0-11.4,0-12.5C38.5,18,40.4,16.5,42.2,16.5L42.2,16.5z"/>
	<path class="st0" d="M32,36.8H11.3v2.3h24.4c0,0,0.9-2,0.9-4.3c0-0.1,0-15.7,0-15.7c0-1.2,0.5-3.3,3-3.9c0.1,0,0.1,0,0.2,0
		c7.2-1.7,14.6-0.2,18.8,1.7c0.8,0.4,0.9-0.2,0.9-0.5c0.1-3.5-2.6-7.5-7.5-7.8c-4-0.1-6.2,1.3-7,1.7c-0.1,0-0.2,0-0.3-0.1
		C44,9.5,42.4,8.5,40.6,8c-0.3-0.1-0.3-0.5,0-0.5c3.8-0.4,7.1,0,8.5,0.2c0.3,0.1,0.6-0.1,0.4-0.4c-0.1-0.2-0.2-0.3-0.3-0.7
		c-0.3-0.7-1.2-1.5-2.4-1.8c-3-0.8-8-1.5-12.6-1.6c-5.1,0-10.4,1-11.8,1.3c-0.3,0.1-0.8,0.2-0.9,0.2c-0.4,0.1-0.5,0.4-0.3,0.6
		c0.1,0.1,0.4,0.3,0.5,0.5C22,6,22.1,6.3,21.8,6.7l-9.4,8.4h6.4h0.1c0.4,0,0.8,0.4,0.8,0.8c0,0.4-0.3,0.8-0.8,0.8h-0.1h-8.4
		l-2.6,2.3h10.9l0.1,0c0.4,0,0.8,0.4,0.8,0.9c0,0.4-0.3,0.8-0.8,0.8l-0.1,0H6.1l-2.6,2.3h22.1l0.1,0c0.4,0,0.8,0.5,0.8,0.8
		c0,0.5-0.3,0.9-0.8,0.9h-0.1H3.5v2.3h22.1l0.1,0c0.5,0,0.8,0.5,0.8,0.9c0,0.4-0.4,0.8-0.8,0.8h-0.1H3.5v2.3h28.8h0.1
		c0.5,0,0.8,0.4,0.8,0.9c0,0.4-0.3,0.8-0.8,0.8h-0.1H11.3v2.3H32l0.4,0c0.4,0,0.7,0.5,0.7,0.9c0,0.4-0.3,0.8-0.7,0.8H32L32,36.8z"/>
	<path class="st0" d="M19,44.8l0,2.4c0,0,3.1,0,4.9,0c4.4,0,7.3-2.4,7.3-2.4H19L19,44.8z"/>
	<path class="st0" d="M19,40.8l0,2.3h14.1c0.7-0.7,1.5-1.9,1.7-2.3L19,40.8L19,40.8z"/>
	<path class="st0" d="M246.6,26.5c0,0,0-0.1,0-0.1c-0.1-1.8-0.7-3.4-1.5-4.6c-1.7-2.7-4.8-4.2-8.5-4.2c-3.7,0-6.8,1.4-8.5,4.2
		c-0.8,1.2-1.4,2.9-1.5,4.6c0,0,0,0.1,0,0.1c-0.5,6,3,10.2,9,10.7c0.4,0,0.7,0,1.1,0c0.3,0,0.7,0,1.1,0
		C243.6,36.7,247.1,32.6,246.6,26.5L246.6,26.5z M237,34.4c-0.2,0-0.3,0-0.5,0c-0.1,0-0.3,0-0.5,0c-0.9-0.1-1.6-0.4-2.2-0.9
		c-0.2-0.2-0.4-0.3-0.5-0.5c-0.9-1-1.4-2.8-1.5-4.2c-0.3-3.3,0.4-8,4.4-8.3c0.1,0,0.2,0,0.3,0c0,0,0,0,0,0s0,0,0,0
		c0.1,0,0.2,0,0.3,0c4,0.3,4.7,5.1,4.4,8.3c-0.1,1.4-0.6,3.1-1.5,4.2c-0.2,0.2-0.4,0.4-0.5,0.5C238.6,34,237.8,34.3,237,34.4
		L237,34.4z"/>
	<path class="st0" d="M206.8,22.1c0-1.5,0.1-4.1,0.1-4.1h0H202h0c0,0,0.1,2.6,0.1,4.1l0,10.7c0,1.5-0.1,4-0.1,4h0h4.9h0
		c0,0-0.1-2.5-0.1-4L206.8,22.1L206.8,22.1z"/>
	<path class="st0" d="M178.2,33.9c-1,0-2.4,0-3.4,0c0-1.9-0.1-3.7-0.1-5.4l0-0.3h0c0,0,0,0,0,0h5.7v-2.7h-5.7c0-2.9,0.1-4.8,0.1-4.8
		l7,0v-2.8c-4.9,0-12,0-12,0s0.1,2.6,0.1,4.1v10.7c0,1.4-0.1,3.7-0.1,4.1h12.5l0-3C182.3,33.8,179.8,33.9,178.2,33.9L178.2,33.9z"/>
	<path class="st0" d="M96.4,33.9c-1,0-2.4,0-3.4,0c0-1.9-0.1-3.7-0.1-5.4l0-0.3h0c0,0,0,0,0,0h5.7v-2.7h-5.7c0-2.9,0.1-4.8,0.1-4.8
		l7,0v-2.8c-4.9,0-12,0-12,0s0.1,2.6,0.1,4.1v10.7c0,1.4-0.1,3.7-0.1,4.1h12.5l0-3C100.5,33.8,98.1,33.9,96.4,33.9L96.4,33.9z"/>
	<path class="st0" d="M194.2,26.7l5.4-8.7h-3.7l0,0.1c-1.1,2-2.5,4.3-3.1,5.2l-0.2,0.3l-3.1-5.6h-5.6l5.4,9.8l-5.7,9.1h3.7
		c2.4-4.1,3.7-6,3.7-6l3.4,6h5.6L194.2,26.7L194.2,26.7z"/>
	<path class="st0" d="M222.1,34.2c-4.4,0-6.7-3.2-6.6-7.2c0.1-3.4,1.7-6.4,5.4-6.6c1.4-0.1,2.6,0.2,4.6,0.7l-0.2-2.9
		c0,0-1.7-0.5-4.1-0.6c-3.1-0.1-5.9,0.5-8.2,2.6c-2,1.8-3.2,4.5-3.2,7.2c0,2.9,1.2,5.6,3.5,7.5c2.3,2,4.9,2.4,7.8,2.4
		c2,0,3.1-0.1,5-0.7l-0.3-2.9C225.5,33.8,224.1,34.2,222.1,34.2L222.1,34.2z"/>
	<path class="st0" d="M159.1,15.1h5.5l0.2,1.3c1.2,12.6,2,20.4,2,20.4H161l-0.6-7.8l-0.5-7l-4.8,14.8c-1.3,0-3,0-3,0s-1.5-5.2-1.8-6
		l-2.8-8.9c0,0-0.4,4.9-0.6,7c-0.3,4.2-0.6,7.8-0.6,7.8H142c0,0,1.7-17.6,1.9-18.7c0.1-1.1,0.3-3,0.3-3h5.6l4.6,12.7L159.1,15.1
		L159.1,15.1z"/>
	<path class="st0" d="M139.8,26.6c0,0,0-0.1,0-0.1c-0.1-1.8-0.7-3.4-1.5-4.6c-1.7-2.7-4.8-4.2-8.5-4.2c-3.7,0-6.7,1.4-8.5,4.2
		c-0.8,1.2-1.4,2.8-1.5,4.6c0,0,0,0.1,0,0.1c-0.5,6,3,10.1,8.9,10.6c0.4,0,0.7,0,1.1,0c0.3,0,0.7,0,1,0
		C136.8,36.7,140.3,32.6,139.8,26.6L139.8,26.6z M130.2,34.4c-0.2,0-0.3,0-0.5,0c-0.2,0-0.3,0-0.5,0c-0.9-0.1-1.6-0.4-2.2-0.9
		c-0.2-0.1-0.4-0.3-0.5-0.5c-0.9-1-1.4-2.8-1.5-4.2c-0.3-3.2,0.4-8,4.4-8.3c0.1,0,0.2,0,0.3,0c0,0,0,0,0,0c0,0,0,0,0,0
		c0.1,0,0.2,0,0.3,0c4,0.3,4.6,5.1,4.4,8.3c-0.1,1.4-0.6,3.1-1.5,4.2c-0.2,0.2-0.3,0.4-0.5,0.5C131.8,34,131,34.3,130.2,34.4
		L130.2,34.4z"/>
	<path class="st0" d="M86.9,36.8c-0.2-0.4-1.2-2.8-1.9-4.7l-6.4-17h-5c0,0-1.4,4-1.6,4.6l-4.7,13.2c-0.6,1.7-1.5,3.9-1.5,3.9h4.1
		c0,0,1.1-3.7,1.4-4.3l0.6-1.8h7l1,2.8c0.2,0.5,1,3.3,1,3.4H86.9L86.9,36.8z M73,27.6l2.4-7l0.1-0.4l2.5,7.4H73L73,27.6z"/>
	<path class="st0" d="M120,36.8c-1.2-1.7-1.6-2.4-2.5-3.6l-3.4-5.3c1.6-0.8,3.2-2.1,3.4-5c0.1-1.8-0.8-3.2-1.4-3.7
		c-0.8-0.7-1.6-1-2.7-1.2c-0.9-0.1-1.6-0.1-2.1-0.2h-8c0,0,0.1,2.6,0.1,4.1v10.7c0,1.5-0.1,4.1-0.1,4.1h4.9c0,0-0.1-2.6-0.1-4.1
		l0-3.4c0,0,1.1,0,1.8,0l3.1,5.7c0.4,0.7,1,1.6,1.2,1.8H120L120,36.8z M111.4,26.3c-0.7,0.4-2.4,0.3-3.2,0.2l0.1-5.4l0.5,0
		c1.5-0.1,2.6,0.1,3,0.3c0.7,0.3,1.1,0.9,1.1,2C112.9,25,112.3,25.8,111.4,26.3L111.4,26.3z"/>
</g>
</svg>
