<?xml version="1.0" encoding="utf-8"?>
<!-- Generator: Adobe Illustrator 16.0.0, SVG Export Plug-In . SVG Version: 6.00 Build 0)  -->
<!DOCTYPE svg PUBLIC "-//W3C//DTD SVG 1.1//EN" "http://www.w3.org/Graphics/SVG/1.1/DTD/svg11.dtd">
<svg version="1.1" id="Capa_1" xmlns="http://www.w3.org/2000/svg" xmlns:xlink="http://www.w3.org/1999/xlink" x="0px" y="0px"
	 width="792px" height="167.991px" viewBox="0 0 792 167.991" enable-background="new 0 0 792 167.991" xml:space="preserve">
<path fill="#FFFFFF" d="M753.578,27.524c0-8.686,7.096-15.795,15.851-15.795c4.188,0,8.11,1.679,11.095,4.628
	c2.971,3.03,4.568,6.992,4.568,11.167c0,4.189-1.598,8.211-4.568,11.127c-2.984,2.998-6.906,4.664-11.095,4.664
	C760.674,43.315,753.578,36.242,753.578,27.524 M752.242,27.524c0,9.451,7.712,17.146,17.187,17.146
	c4.573,0,8.803-1.771,12.072-5.019c3.262-3.256,5.009-7.531,5.009-12.127c0-4.596-1.747-8.876-5.009-12.137
	c-3.27-3.225-7.499-5.013-12.072-5.013C759.954,10.374,752.242,18.063,752.242,27.524"/>
<path fill="#FFFFFF" d="M763.002,37.627h2.396v-7.97h5.443c0.934,0,1.612,0.067,2.119,0.308c0.797,0.458,1.223,1.241,1.26,2.486
	l0.226,3.116c0,0.711,0.014,1.2,0.014,1.449c0.122,0.245,0.214,0.458,0.231,0.612h3.034v-0.444c-0.389-0.131-0.57-0.516-0.793-1.123
	c-0.127-0.326-0.127-0.865-0.145-1.563l-0.104-2.5c0-1.078-0.244-1.907-0.543-2.341c-0.371-0.484-0.987-0.896-1.681-1.182
	c0.807-0.395,1.427-1.028,1.938-1.708c0.407-0.743,0.648-1.607,0.648-2.712c0-2.129-0.82-3.61-2.5-4.407
	c-0.874-0.422-2.039-0.616-3.356-0.616h-8.188V37.627z M765.397,27.524v-6.358h5.792c0.848,0,1.526,0.141,2.024,0.39
	c0.819,0.471,1.358,1.372,1.358,2.69c0,1.268-0.353,2.115-1.023,2.604c-0.639,0.462-1.512,0.675-2.604,0.675H765.397z"/>
<polygon fill="#FFFFFF" points="78.773,51.132 8.289,160.272 56.465,160.272 124.222,55.937 "/>
<path fill="#FFFFFF" d="M80.417,48.682c0,0,16.634-27.113,20.754-32.466c3.944-5.412,9.175-7.712,14.673-7.712h72.721V45.43
	c0,0,3.696-14.175,10.217-20.904c6.113-6.335,14.265-15.126,32.892-16.29h136.991v40.446H80.417z"/>
<path fill="#FFFFFF" d="M741.165,48.718V8.241H594.596c-18.577,1.159-26.77,9.944-32.896,16.281
	c-6.521,6.733-10.181,20.904-10.181,20.904v3.256L741.165,48.718z"/>
<rect x="375.816" y="8.431" fill="#FFFFFF" width="40.966" height="40.251"/>
<rect x="510.299" y="8.431" fill="#FFFFFF" width="40.921" height="40.251"/>
<path fill="#FFFFFF" d="M551.215,63.214l-40.231-2.377v46.704c0,0-0.122,13.444-13.257,13.444h-69.151
	c0,0-11.711-0.946-11.711-13.322V54.497l-40.641-2.908v71.621c6.566,34.354,37.909,36.994,37.909,36.994s3.192,0.218,3.713,0.267
	h93.404c0,0,39.965-3.192,39.965-41.155V63.214z"/>
<path fill="#FFFFFF" d="M146.988,160.295h191.575c33.367-6.626,36.845-36.596,36.845-36.596c1.576-8.908,0.652-16.109,0.652-16.109
	c-0.997-6.004-12.535-32.524-37.57-34.833C323.551,71.38,190.658,60.94,190.658,60.94c2.572,13.174,8.568,19.831,12.54,23.64
	c9.23,8.762,23.912,11.249,23.912,11.249c3.545,0.336,102.415,8.428,102.415,8.428c3.152,0.159,9.125,0.956,9.048,8.683
	c0,0.937-0.86,7.744-8.446,7.744h-143.3V60.606l-39.839-2.88V160.295z"/>
<path fill="#FFFFFF" d="M551.609,120.438h142.308c3.278,0,6.816-1.915,6.816-1.915c1.48-1.317,2.681-3.731,2.681-6.055
	c0-7.712-6.426-8.047-9.651-8.206c0,0-99.983-8.265-103.47-8.541c0,0-13.857-2.11-23.104-10.918
	c-4.013-3.769-9.33-7.889-13.292-21.476c0,0,133.645,7.794,148.499,9.171c25.07,2.377,36.813,26.927,37.877,35.092
	c0,0,1.069,7.378-0.235,16.444c0,0-5.19,34.517-41.963,36.614H551.51L551.609,120.438z"/>
<path fill="#FFFFFF" d="M753.578,27.524c0-8.686,7.096-15.795,15.851-15.795c4.188,0,8.11,1.679,11.095,4.628
	c2.971,3.03,4.568,6.992,4.568,11.167c0,4.189-1.598,8.211-4.568,11.127c-2.984,2.998-6.906,4.664-11.095,4.664
	C760.674,43.315,753.578,36.242,753.578,27.524 M752.242,27.524c0,9.451,7.712,17.146,17.187,17.146
	c4.573,0,8.803-1.771,12.072-5.019c3.262-3.256,5.009-7.531,5.009-12.127c0-4.596-1.747-8.876-5.009-12.137
	c-3.27-3.225-7.499-5.013-12.072-5.013C759.954,10.374,752.242,18.063,752.242,27.524"/>
<path fill="#FFFFFF" d="M763.002,37.627h2.396v-7.97h5.443c0.934,0,1.612,0.067,2.119,0.308c0.797,0.458,1.223,1.241,1.26,2.486
	l0.226,3.116c0,0.711,0.014,1.2,0.014,1.449c0.122,0.245,0.214,0.458,0.231,0.612h3.034v-0.444c-0.389-0.131-0.57-0.516-0.793-1.123
	c-0.127-0.326-0.127-0.865-0.145-1.563l-0.104-2.5c0-1.078-0.244-1.907-0.543-2.341c-0.371-0.484-0.987-0.896-1.681-1.182
	c0.807-0.395,1.427-1.028,1.938-1.708c0.407-0.743,0.648-1.607,0.648-2.712c0-2.129-0.82-3.61-2.5-4.407
	c-0.874-0.422-2.039-0.616-3.356-0.616h-8.188V37.627z M765.397,27.524v-6.358h5.792c0.848,0,1.526,0.141,2.024,0.39
	c0.819,0.471,1.358,1.372,1.358,2.69c0,1.268-0.353,2.115-1.023,2.604c-0.639,0.462-1.512,0.675-2.604,0.675H765.397z"/>
<polygon fill="#FFFFFF" points="78.773,51.132 8.289,160.272 56.465,160.272 124.222,55.937 "/>
<path fill="#FFFFFF" d="M80.417,48.682c0,0,16.634-27.113,20.754-32.466c3.944-5.412,9.175-7.712,14.673-7.712h72.721V45.43
	c0,0,3.696-14.175,10.217-20.904c6.113-6.335,14.265-15.126,32.892-16.29h136.991v40.446H80.417z"/>
<path fill="#FFFFFF" d="M741.165,48.718V8.241H594.596c-18.577,1.159-26.77,9.944-32.896,16.281
	c-6.521,6.733-10.181,20.904-10.181,20.904v3.256L741.165,48.718z"/>
<rect x="375.816" y="8.431" fill="#FFFFFF" width="40.966" height="40.251"/>
<rect x="510.299" y="8.431" fill="#FFFFFF" width="40.921" height="40.251"/>
<path fill="#FFFFFF" d="M551.215,63.214l-40.231-2.377v46.704c0,0-0.122,13.444-13.257,13.444h-69.151
	c0,0-11.711-0.946-11.711-13.322V54.497l-40.641-2.908v71.621c6.566,34.354,37.909,36.994,37.909,36.994s3.192,0.218,3.713,0.267
	h93.404c0,0,39.965-3.192,39.965-41.155V63.214z"/>
<path fill="#FFFFFF" d="M146.988,160.295h191.575c33.367-6.626,36.845-36.596,36.845-36.596c1.576-8.908,0.652-16.109,0.652-16.109
	c-0.997-6.004-12.535-32.524-37.57-34.833C323.551,71.38,190.658,60.94,190.658,60.94c2.572,13.174,8.568,19.831,12.54,23.64
	c9.23,8.762,23.912,11.249,23.912,11.249c3.545,0.336,102.415,8.428,102.415,8.428c3.152,0.159,9.125,0.956,9.048,8.683
	c0,0.937-0.86,7.744-8.446,7.744h-143.3V60.606l-39.839-2.88V160.295z"/>
<path fill="#FFFFFF" d="M551.609,120.438h142.308c3.278,0,6.816-1.915,6.816-1.915c1.48-1.317,2.681-3.731,2.681-6.055
	c0-7.712-6.426-8.047-9.651-8.206c0,0-99.983-8.265-103.47-8.541c0,0-13.857-2.11-23.104-10.918
	c-4.013-3.769-9.33-7.889-13.292-21.476c0,0,133.645,7.794,148.499,9.171c25.07,2.377,36.813,26.927,37.877,35.092
	c0,0,1.069,7.378-0.235,16.444c0,0-5.19,34.517-41.963,36.614H551.51L551.609,120.438z"/>
</svg>
